<svg width="375" height="335" viewBox="0 0 375 335" fill="none" xmlns="http://www.w3.org/2000/svg">
<g filter="url(#filter0_b)">
<rect y="44" width="375" height="291" fill="#D1D5DB"/>
</g>
<rect x="121" y="322" width="134" height="5" rx="2.5" fill="black"/>
<path fill-rule="evenodd" clip-rule="evenodd" d="M330.833 295.332C331.294 295.332 331.667 295.705 331.667 296.165C331.667 296.193 331.665 296.22 331.663 296.247V298.542H331.658V298.549C331.658 298.564 331.659 298.58 331.661 298.596C331.662 298.61 331.663 298.624 331.663 298.639V298.952H331.678C331.926 301.916 334.351 304.226 337.324 304.329H337.66C340.634 304.228 343.06 301.917 343.307 298.952H343.327V296.175L343.333 296.175L343.333 296.165C343.333 295.705 343.706 295.332 344.167 295.332C344.627 295.332 345 295.705 345 296.165C345 296.189 344.999 296.213 344.997 296.236V298.282H344.987H344.987C344.989 302.111 342.128 305.336 338.327 305.79V308.323H341.467V308.334C341.478 308.333 341.489 308.333 341.5 308.333C341.96 308.333 342.333 308.706 342.333 309.167C342.333 309.627 341.96 310 341.5 310C341.489 310 341.478 310 341.467 309.999V310H333.53V309.999C333.52 310 333.51 310 333.5 310C333.04 310 332.667 309.627 332.667 309.167C332.667 308.706 333.04 308.333 333.5 308.333C333.51 308.333 333.52 308.333 333.53 308.334V308.323H336.677V305.79C332.867 305.347 329.995 302.118 330 298.282C330 298.262 330.002 298.243 330.003 298.225L330.003 298.225C330.005 298.209 330.006 298.194 330.006 298.179V296.268C330.002 296.235 330 296.2 330 296.165C330 295.705 330.373 295.332 330.833 295.332ZM341.993 296.879C341.993 297.382 341.993 297.912 341.967 298.415C341.946 298.869 341.877 299.32 341.76 299.759C341.499 300.681 340.943 301.491 340.177 302.066C338.605 303.306 336.388 303.306 334.817 302.066C334.048 301.493 333.492 300.682 333.233 299.759C333.115 299.32 333.046 298.869 333.026 298.415C332.997 297.912 333 297.382 333 296.879V292.665C333 292.165 333.003 289.955 333 289.581C333.013 289.125 333.092 288.672 333.233 288.238C333.767 286.324 335.51 285 337.497 285C339.484 285 341.227 286.324 341.761 288.238C341.886 288.676 341.964 289.126 341.994 289.581C342.024 290.085 341.994 292.165 341.994 292.665V296.879H341.993ZM340.327 297.665C340.327 297.985 340.32 298.092 340.3 298.412C340.288 298.703 340.245 298.991 340.17 299.272C340.01 299.862 339.663 300.384 339.18 300.759C338.191 301.528 336.806 301.528 335.817 300.759C335.332 300.385 334.983 299.863 334.823 299.272C334.75 298.991 334.706 298.703 334.693 298.412C334.677 298.092 334.673 297.985 334.673 297.665C334.673 293.232 334.653 289.945 334.68 289.591C334.699 289.3 334.747 289.012 334.823 288.731C334.983 288.14 335.332 287.618 335.817 287.244C336.806 286.475 338.191 286.475 339.18 287.244C339.663 287.619 340.01 288.141 340.17 288.731C340.255 289.011 340.308 289.3 340.33 289.591C340.353 289.971 340.327 293.218 340.327 297.665Z" fill="#50555C"/>
<path fill-rule="evenodd" clip-rule="evenodd" d="M38.5 284C45.9558 284 52 290.044 52 297.5C52 304.956 45.9558 311 38.5 311C31.0442 311 25 304.956 25 297.5C25 290.044 31.0442 284 38.5 284ZM38.5 285.573C45.0871 285.573 50.4264 290.914 50.4259 297.501C50.4254 304.088 45.0853 309.427 38.4982 309.427C31.9111 309.427 26.5714 304.087 26.5714 297.5C26.5715 294.336 27.8283 291.303 30.0654 289.066C32.3025 286.829 35.3365 285.572 38.5 285.573ZM34.2293 291.644C33.812 291.639 33.4102 291.802 33.1137 292.096C32.8173 292.389 32.651 292.79 32.6521 293.207C32.6521 294.078 33.3582 294.784 34.2293 294.784C35.1003 294.784 35.8064 294.078 35.8064 293.207C35.8075 292.79 35.6413 292.389 35.3448 292.096C35.0484 291.802 34.6465 291.639 34.2293 291.644ZM47.4967 299.825C46.7779 303.71 43.0286 306.953 38.4983 306.953C34.0042 306.953 30.2768 303.757 29.5157 299.917C29.3615 298.958 30.1465 298.732 30.886 298.911C33.3597 299.626 35.9251 299.974 38.5 299.943C41.0691 299.973 43.6286 299.626 46.0971 298.914C46.816 298.732 47.5858 298.938 47.4967 299.825ZM45.0563 300.365C44.9861 300.392 44.9149 300.413 44.843 300.436C44.8356 300.44 45.0731 300.362 45.0661 300.365C42.9315 300.953 40.725 301.238 38.5111 301.212C35.8692 301.212 33.5063 300.919 31.8803 300.335C30.7014 299.984 30.9275 301.371 31.7561 301.796C33.8758 302.761 36.182 303.248 38.5108 303.221C41.281 303.221 43.7495 302.576 45.3799 301.742C46.1515 301.246 46.304 299.916 45.0563 300.365ZM42.7795 291.644C42.3622 291.639 41.9603 291.802 41.6638 292.096C41.3673 292.389 41.201 292.79 41.202 293.207C41.1937 293.776 41.4925 294.305 41.9839 294.592C42.4754 294.879 43.0833 294.879 43.5747 294.592C44.0662 294.305 44.365 293.776 44.3566 293.207C44.3577 292.79 44.1914 292.389 43.8949 292.096C43.5985 291.802 43.1967 291.639 42.7795 291.644Z" fill="#50555C"/>
<g filter="url(#filter1_d)">
<path fill-rule="evenodd" clip-rule="evenodd" d="M284 221.36C284 218.784 284 217.496 284.501 216.512C284.942 215.646 285.646 214.942 286.512 214.501C287.496 214 288.784 214 291.36 214H364.64C367.216 214 368.504 214 369.488 214.501C370.354 214.942 371.058 215.646 371.499 216.512C372 217.496 372 218.784 372 221.36V248.64C372 251.216 372 252.504 371.499 253.488C371.058 254.354 370.354 255.058 369.488 255.499C368.504 256 367.216 256 364.64 256H291.36C288.784 256 287.496 256 286.512 255.499C285.646 255.058 284.942 254.354 284.501 253.488C284 252.504 284 251.216 284 248.64V221.36Z" fill="#ADB3BC"/>
</g>
<path d="M307.191 241H308.534V235.781C308.534 234.594 309.464 233.734 310.745 233.734C311.011 233.734 311.495 233.781 311.605 233.812V232.469C311.433 232.445 311.152 232.43 310.933 232.43C309.816 232.43 308.847 233.008 308.597 233.828H308.472V232.578H307.191V241ZM318.308 238.82C317.957 239.562 317.222 239.961 316.136 239.961C314.707 239.961 313.777 238.906 313.707 237.242V237.18H319.761V236.664C319.761 234.047 318.378 232.43 316.105 232.43C313.792 232.43 312.308 234.148 312.308 236.797C312.308 239.461 313.769 241.148 316.105 241.148C317.949 241.148 319.261 240.258 319.652 238.82H318.308ZM316.089 233.617C317.425 233.617 318.316 234.602 318.347 236.094H313.707C313.808 234.602 314.746 233.617 316.089 233.617ZM322.113 230.398V232.578H320.754V233.703H322.113V238.812C322.113 240.422 322.808 241.062 324.543 241.062C324.808 241.062 325.066 241.031 325.332 240.984V239.852C325.082 239.875 324.949 239.883 324.707 239.883C323.832 239.883 323.457 239.461 323.457 238.469V233.703H325.332V232.578H323.457V230.398H322.113ZM333.856 232.578H332.512V237.562C332.512 239.039 331.699 239.922 330.215 239.922C328.871 239.922 328.309 239.219 328.309 237.703V232.578H326.965V238.031C326.965 240.023 327.949 241.148 329.84 241.148C331.129 241.148 332.028 240.617 332.449 239.68H332.574V241H333.856V232.578ZM336.067 241H337.411V235.781C337.411 234.594 338.34 233.734 339.622 233.734C339.887 233.734 340.372 233.781 340.481 233.812V232.469C340.309 232.445 340.028 232.43 339.809 232.43C338.692 232.43 337.723 233.008 337.473 233.828H337.348V232.578H336.067V241ZM341.997 241H343.341V236.016C343.341 234.539 344.208 233.641 345.552 233.641C346.895 233.641 347.536 234.359 347.536 235.875V241H348.88V235.547C348.88 233.547 347.825 232.43 345.934 232.43C344.645 232.43 343.825 232.977 343.403 233.906H343.278V232.578H341.997V241Z" fill="black"/>
<g filter="url(#filter2_d)">
<path fill-rule="evenodd" clip-rule="evenodd" d="M96 221.36C96 218.784 96 217.496 96.5014 216.512C96.9424 215.646 97.6461 214.942 98.5116 214.501C99.4956 214 100.784 214 103.36 214H270.64C273.216 214 274.504 214 275.488 214.501C276.354 214.942 277.058 215.646 277.499 216.512C278 217.496 278 218.784 278 221.36V248.64C278 251.216 278 252.504 277.499 253.488C277.058 254.354 276.354 255.058 275.488 255.499C274.504 256 273.216 256 270.64 256H103.36C100.784 256 99.4956 256 98.5116 255.499C97.6461 255.058 96.9424 254.354 96.5014 253.488C96 252.504 96 251.216 96 248.64V221.36Z" fill="#FCFCFE"/>
</g>
<path d="M166.187 234.883C166.187 236.102 166.906 236.781 168.484 237.164L169.929 237.516C170.827 237.734 171.265 238.125 171.265 238.703C171.265 239.477 170.452 240.016 169.32 240.016C168.242 240.016 167.57 239.562 167.343 238.852H165.96C166.109 240.25 167.398 241.148 169.273 241.148C171.187 241.148 172.648 240.109 172.648 238.602C172.648 237.391 171.882 236.703 170.296 236.32L168.999 236.008C168.007 235.766 167.538 235.406 167.538 234.828C167.538 234.078 168.32 233.57 169.32 233.57C170.335 233.57 170.992 234.016 171.171 234.688H172.499C172.32 233.305 171.093 232.43 169.327 232.43C167.538 232.43 166.187 233.484 166.187 234.883ZM178.539 232.43C177.39 232.43 176.382 233.016 175.843 233.984H175.718V232.578H174.437V243.812H175.781V239.734H175.906C176.367 240.625 177.336 241.148 178.539 241.148C180.679 241.148 182.078 239.422 182.078 236.789C182.078 234.141 180.687 232.43 178.539 232.43ZM178.218 239.938C176.703 239.938 175.742 238.719 175.742 236.789C175.742 234.852 176.703 233.641 178.226 233.641C179.765 233.641 180.687 234.82 180.687 236.789C180.687 238.758 179.765 239.938 178.218 239.938ZM186.211 241.148C187.336 241.148 188.258 240.656 188.805 239.758H188.93V241H190.211V235.234C190.211 233.484 189.062 232.43 187.008 232.43C185.211 232.43 183.883 233.32 183.703 234.672H185.062C185.25 234.008 185.953 233.625 186.961 233.625C188.219 233.625 188.867 234.195 188.867 235.234V236L186.438 236.148C184.477 236.266 183.367 237.133 183.367 238.641C183.367 240.18 184.578 241.148 186.211 241.148ZM186.461 239.969C185.484 239.969 184.758 239.469 184.758 238.609C184.758 237.766 185.32 237.32 186.602 237.234L188.867 237.086V237.859C188.867 239.062 187.844 239.969 186.461 239.969ZM199.344 235.156C199.11 233.656 197.86 232.43 195.813 232.43C193.453 232.43 191.953 234.133 191.953 236.758C191.953 239.438 193.461 241.148 195.821 241.148C197.844 241.148 199.102 240.008 199.344 238.461H197.985C197.735 239.414 196.946 239.938 195.813 239.938C194.313 239.938 193.344 238.703 193.344 236.758C193.344 234.852 194.297 233.641 195.813 233.641C197.024 233.641 197.766 234.32 197.985 235.156H199.344ZM206.587 238.82C206.235 239.562 205.501 239.961 204.415 239.961C202.985 239.961 202.055 238.906 201.985 237.242V237.18H208.04V236.664C208.04 234.047 206.657 232.43 204.383 232.43C202.071 232.43 200.587 234.148 200.587 236.797C200.587 239.461 202.048 241.148 204.383 241.148C206.227 241.148 207.54 240.258 207.93 238.82H206.587ZM204.368 233.617C205.704 233.617 206.594 234.602 206.626 236.094H201.985C202.087 234.602 203.024 233.617 204.368 233.617Z" fill="black"/>
<g filter="url(#filter3_d)">
<path fill-rule="evenodd" clip-rule="evenodd" d="M3 221.36C3 218.784 3 217.496 3.50137 216.512C3.94239 215.646 4.6461 214.942 5.51164 214.501C6.49564 214 7.78376 214 10.36 214H82.64C85.2162 214 86.5044 214 87.4884 214.501C88.3539 214.942 89.0576 215.646 89.4986 216.512C90 217.496 90 218.784 90 221.36V248.64C90 251.216 90 252.504 89.4986 253.488C89.0576 254.354 88.3539 255.058 87.4884 255.499C86.5044 256 85.2162 256 82.64 256H10.36C7.78376 256 6.49564 256 5.51164 255.499C4.6461 255.058 3.94239 254.354 3.50137 253.488C3 252.504 3 251.216 3 248.64V221.36Z" fill="#ADB3BC"/>
</g>
<path d="M37.1872 241H38.5934V229.727H37.195L34.195 231.883V233.367L37.0622 231.289H37.1872V241ZM41.5703 232.906H42.9297C42.9297 231.57 43.8281 230.688 45.1797 230.688C46.5078 230.688 47.3125 231.578 47.3125 232.773C47.3125 233.766 46.8906 234.352 45.4531 235.906L41.6406 240.031V241H48.9375V239.734H43.5938V239.609L46.1562 236.961C48.1875 234.859 48.75 233.922 48.75 232.625C48.75 230.797 47.2422 229.461 45.2734 229.461C43.1172 229.461 41.5703 230.898 41.5703 232.906ZM53.3597 235.805H54.7581C56.3441 235.805 57.3206 236.617 57.3206 237.922C57.3206 239.188 56.2659 240.039 54.7816 240.039C53.3284 240.039 52.3128 239.281 52.1878 238.094H50.8284C50.93 240.008 52.5081 241.266 54.7972 241.266C57.0394 241.266 58.7659 239.852 58.7659 237.961C58.7659 236.391 57.7972 235.398 56.3363 235.164V235.039C57.4925 234.703 58.3363 233.805 58.3441 232.445C58.3519 230.867 57.0706 229.461 54.8441 229.461C52.5628 229.461 51.1644 230.812 51.0238 232.648H52.3909C52.5081 231.383 53.3909 230.688 54.7503 230.688C56.1097 230.688 56.9144 231.547 56.9144 232.602C56.9144 233.773 55.9925 234.602 54.6956 234.602H53.3597V235.805Z" fill="black"/>
<g filter="url(#filter4_d)">
<path fill-rule="evenodd" clip-rule="evenodd" d="M330 167.36C330 164.784 330 163.496 330.501 162.512C330.942 161.646 331.646 160.942 332.512 160.501C333.496 160 334.784 160 337.36 160H364.64C367.216 160 368.504 160 369.488 160.501C370.354 160.942 371.058 161.646 371.499 162.512C372 163.496 372 164.784 372 167.36V194.64C372 197.216 372 198.504 371.499 199.488C371.058 200.354 370.354 201.058 369.488 201.499C368.504 202 367.216 202 364.64 202H337.36C334.784 202 333.496 202 332.512 201.499C331.646 201.058 330.942 200.354 330.501 199.488C330 198.504 330 197.216 330 194.64V167.36Z" fill="#ADB3BC"/>
</g>
<path fill-rule="evenodd" clip-rule="evenodd" d="M343.213 176.778C343.198 176.792 343.169 176.82 343.136 176.852C343.113 176.875 343.094 176.894 343.056 176.933L340.912 179.076C340.856 179.134 340.817 179.174 340.727 179.265C340.676 179.315 340.639 179.354 340.559 179.439C340.411 179.582 340.254 179.754 340.108 179.935C339.969 180.081 339.859 180.252 339.782 180.438C339.623 180.922 339.623 181.393 339.764 181.83L339.783 181.88C339.861 182.065 339.971 182.234 340.108 182.379C340.254 182.559 340.411 182.731 340.576 182.893C340.639 182.961 340.676 182.999 340.727 183.05L340.912 183.236L342.866 185.193C342.958 185.284 343.003 185.329 343.055 185.378C343.11 185.437 343.168 185.494 343.227 185.549C343.237 185.559 345.727 188.048 345.727 188.048C345.804 188.124 345.866 188.185 346.006 188.32C346.021 188.334 346.043 188.357 346.05 188.364C346.086 188.402 346.107 188.424 346.121 188.438C346.411 188.729 346.745 188.973 347.11 189.162C347.485 189.348 347.874 189.477 348.276 189.547C348.655 189.609 349.031 189.643 349.408 189.648C349.473 189.649 349.527 189.65 349.647 189.651C349.763 189.652 349.814 189.653 349.877 189.654L357.297 189.654C357.374 189.653 357.426 189.652 357.543 189.651C357.664 189.65 357.719 189.649 357.788 189.648C358.166 189.641 358.545 189.607 358.92 189.545C359.33 189.476 359.725 189.345 360.094 189.158C360.465 188.969 360.805 188.723 361.098 188.427C361.391 188.134 361.636 187.796 361.826 187.427C362.013 187.053 362.141 186.66 362.21 186.254C362.273 185.875 362.307 185.495 362.311 185.113C362.314 185.035 362.315 184.96 362.318 184.794C362.319 184.715 362.319 184.68 362.32 184.638L362.32 177.648C362.319 177.594 362.319 177.559 362.318 177.482L362.317 177.401C362.315 177.3 362.313 177.224 362.31 177.148C362.306 176.789 362.274 176.413 362.215 176.042C362.142 175.63 362.014 175.241 361.833 174.875C361.642 174.502 361.398 174.168 361.107 173.877C360.816 173.584 360.479 173.338 360.11 173.15C359.743 172.967 359.356 172.838 358.956 172.767C358.572 172.706 358.195 172.674 357.818 172.67C357.693 172.664 357.583 172.663 357.338 172.663C357.258 172.662 357.165 172.661 357.059 172.661C356.98 172.66 356.917 172.66 356.775 172.66H350.453C350.169 172.66 350.041 172.661 349.879 172.663C349.645 172.663 349.534 172.664 349.392 172.67C349.033 172.674 348.657 172.706 348.285 172.766C347.874 172.838 347.485 172.966 347.12 173.148C346.745 173.342 346.411 173.586 346.121 173.877C346.107 173.891 346.086 173.912 346.052 173.949C346.043 173.958 346.006 173.995 346.006 173.995C345.866 174.13 345.804 174.19 345.727 174.267L345.406 174.588L343.272 176.726C343.253 176.741 343.233 176.759 343.213 176.778ZM356.775 173.919C356.915 173.919 356.977 173.919 357.054 173.919C357.154 173.92 357.243 173.921 357.328 173.922C357.566 173.922 357.665 173.923 357.785 173.928C358.119 173.932 358.435 173.959 358.747 174.009C359.016 174.057 359.288 174.147 359.543 174.274C359.789 174.4 360.017 174.566 360.215 174.765C360.415 174.965 360.581 175.193 360.709 175.443C360.833 175.693 360.924 175.967 360.973 176.25C361.021 176.551 361.048 176.866 361.052 177.181C361.055 177.262 361.056 177.328 361.058 177.42L361.059 177.498C361.06 177.579 361.061 177.615 361.061 177.661L361.061 184.625C361.061 184.659 361.06 184.696 361.059 184.778C361.057 184.933 361.056 185 361.052 185.082C361.049 185.417 361.021 185.733 360.969 186.046C360.921 186.326 360.831 186.601 360.703 186.859C360.576 187.106 360.407 187.337 360.206 187.539C360.006 187.74 359.776 187.908 359.524 188.036C359.268 188.166 358.995 188.256 358.712 188.304C358.401 188.355 358.083 188.384 357.765 188.389C357.699 188.391 357.648 188.391 357.53 188.392C357.409 188.394 357.355 188.394 357.285 188.396L349.889 188.396C349.833 188.394 349.78 188.394 349.659 188.392C349.544 188.391 349.493 188.391 349.43 188.389C349.111 188.385 348.797 188.357 348.486 188.306C348.211 188.258 347.937 188.168 347.68 188.04C347.439 187.915 347.21 187.747 347.011 187.548L346.962 187.496C346.913 187.445 346.892 187.423 346.868 187.402C346.742 187.281 346.685 187.225 346.618 187.157L344.122 184.662C344.099 184.641 344.085 184.628 344.076 184.62C344.031 184.577 343.994 184.539 343.959 184.502C343.887 184.433 343.847 184.394 343.757 184.303L341.803 182.346L341.617 182.16C341.578 182.121 341.547 182.089 341.476 182.013C341.321 181.86 341.191 181.717 341.069 181.567L341.031 181.524C340.999 181.491 340.973 181.454 340.953 181.413C340.905 181.245 340.905 181.067 340.954 180.899C340.973 180.86 340.998 180.825 341.028 180.794L341.071 180.745C341.191 180.596 341.32 180.455 341.457 180.321C341.547 180.226 341.578 180.193 341.617 180.155C341.715 180.056 341.759 180.012 341.814 179.954L343.757 178.012L343.946 177.823C343.983 177.785 343.999 177.769 344.02 177.749L344.061 177.712L344.061 177.712L344.061 177.711C344.092 177.684 344.108 177.669 344.125 177.653L346.297 175.478L346.618 175.157C346.685 175.089 346.742 175.034 346.868 174.913C346.892 174.891 346.913 174.869 346.96 174.82L347.011 174.767C347.21 174.567 347.439 174.4 347.689 174.27C347.937 174.147 348.211 174.057 348.494 174.007C348.795 173.959 349.11 173.932 349.424 173.928C349.562 173.923 349.662 173.922 349.889 173.922C350.052 173.92 350.176 173.919 350.453 173.919H356.775ZM350.813 184.489C350.762 184.539 350.701 184.579 350.633 184.608C350.421 184.695 350.177 184.646 350.015 184.484C349.795 184.263 349.795 183.905 350.015 183.684C350.047 183.652 350.082 183.624 350.12 183.601L352.564 181.155L350.015 178.608L350.023 178.6C349.973 178.549 349.932 178.489 349.904 178.42C349.816 178.208 349.865 177.964 350.028 177.802C350.249 177.582 350.606 177.582 350.827 177.802C350.859 177.835 350.887 177.87 350.91 177.907L353.362 180.356L355.838 177.878C355.856 177.851 355.877 177.826 355.9 177.802C356.061 177.641 356.304 177.592 356.515 177.679C356.727 177.766 356.864 177.972 356.864 178.201C356.864 178.353 356.803 178.495 356.7 178.599L356.706 178.605L354.161 181.153L356.645 183.633C356.667 183.649 356.689 183.667 356.709 183.687C356.871 183.849 356.92 184.092 356.832 184.303C356.745 184.514 356.539 184.652 356.311 184.652C356.159 184.652 356.016 184.59 355.912 184.487L355.906 184.493L353.362 181.952L350.821 184.496L350.813 184.489Z" fill="black"/>
<g filter="url(#filter5_d)">
<rect x="3" y="160" width="42" height="42" rx="4.6" fill="#FCFCFE"/>
</g>
<path d="M32.8002 182.664H28.6031V186.633C28.6031 186.713 28.6031 186.786 28.6031 186.863C28.6031 186.929 28.6031 186.993 28.6005 187.059C28.5986 187.202 28.5863 187.345 28.5635 187.486C28.5387 187.626 28.4938 187.762 28.4302 187.889C28.3651 188.016 28.28 188.132 28.1782 188.232C28.076 188.332 27.9593 188.417 27.832 188.482C27.7031 188.545 27.5661 188.59 27.4251 188.615C27.2836 188.638 27.1407 188.65 26.9975 188.652C26.9309 188.652 26.8662 188.655 26.8009 188.655H21.4018C21.3351 188.655 21.2708 188.652 21.2051 188.652C21.0619 188.65 20.9191 188.638 20.7776 188.615C20.6366 188.59 20.4998 188.545 20.371 188.482C20.2437 188.417 20.127 188.332 20.0248 188.232C19.9229 188.132 19.8379 188.016 19.7728 187.889C19.7092 187.762 19.6643 187.626 19.6395 187.486C19.6166 187.345 19.6041 187.202 19.6022 187.059C19.6022 186.993 19.5995 186.929 19.5995 186.863C19.5995 186.786 19.5995 186.713 19.5995 186.633V182.664H15.3361C14.9049 182.664 14.3517 181.734 14.8696 181.217C15.3098 180.781 22.2289 173.882 23.6769 172.446C23.7833 172.315 23.9336 172.227 24.0998 172.199H24.1112C24.2549 172.207 24.3885 172.276 24.4777 172.389C25.9257 173.826 32.8685 180.781 33.3091 181.217C33.8273 181.734 33.3934 182.664 32.8002 182.664Z" fill="black"/>
<g filter="url(#filter6_d)">
<rect x="285" y="160" width="32" height="42" rx="4.6" fill="#FCFCFE"/>
</g>
<path d="M308.811 189V173.147H306.515L301.088 186.374H300.912L295.485 173.147H293.189V189H295.034V176.893H295.166L300.165 189H301.835L306.834 176.893H306.966V189H308.811Z" fill="black"/>
<g filter="url(#filter7_d)">
<rect x="247" y="160" width="32" height="42" rx="4.6" fill="#FCFCFE"/>
</g>
<path d="M259.127 189V176.706H259.303L267.906 189H269.828V173.147H267.873V185.484H267.697L259.094 173.147H257.172V189H259.127Z" fill="black"/>
<g filter="url(#filter8_d)">
<rect x="209" y="160" width="32" height="42" rx="4.6" fill="#FCFCFE"/>
</g>
<path d="M226.313 189C229.686 189 231.685 187.341 231.685 184.551C231.685 182.452 230.312 180.969 228.148 180.694V180.519C229.675 180.244 230.883 178.75 230.883 177.102C230.883 174.674 229.104 173.147 226.192 173.147H220.128V189H226.313ZM222.105 174.894H225.775C227.741 174.894 228.884 175.827 228.884 177.442C228.884 179.123 227.664 179.98 225.269 179.98H222.105V174.894ZM222.105 187.253V181.683H225.83C228.356 181.683 229.653 182.617 229.653 184.452C229.653 186.286 228.4 187.253 226.016 187.253H222.105Z" fill="black"/>
<g filter="url(#filter9_d)">
<rect x="172" y="160" width="32" height="42" rx="4.6" fill="#FCFCFE"/>
</g>
<path d="M188.978 189L194.823 173.147H192.746L188.088 186.44H187.912L183.254 173.147H181.177L187.022 189H188.978Z" fill="black"/>
<g filter="url(#filter10_d)">
<rect x="134" y="160" width="32" height="42" rx="4.6" fill="#FCFCFE"/>
</g>
<path d="M150.852 189.374C154.224 189.374 156.729 187.495 157.257 184.583H155.246C154.741 186.418 153.06 187.55 150.852 187.55C147.797 187.55 145.886 185.056 145.886 181.079C145.886 177.102 147.797 174.597 150.841 174.597C153.027 174.597 154.719 175.882 155.246 177.926H157.257C156.784 174.872 154.18 172.773 150.841 172.773C146.534 172.773 143.853 175.959 143.853 181.079C143.853 186.188 146.545 189.374 150.852 189.374Z" fill="black"/>
<g filter="url(#filter11_d)">
<rect x="97" y="160" width="32" height="42" rx="4.6" fill="#FCFCFE"/>
</g>
<path d="M106.353 189H108.594L112.824 182.749H113L117.153 189H119.526L114.154 181.112L119.647 173.147H117.395L113.154 179.453H112.978L108.803 173.147H106.419L111.781 181.024L106.353 189Z" fill="black"/>
<g filter="url(#filter12_d)">
<rect x="59" y="160" width="32" height="42" rx="4.6" fill="#FCFCFE"/>
</g>
<path d="M69.6333 189H81.3557V187.22H72.2371V187.044L81.1689 174.553V173.147H69.9409V174.927H78.6091V175.102L69.6333 187.594V189Z" fill="black"/>
<g filter="url(#filter13_d)">
<rect x="322" y="106" width="32" height="42" rx="4.6" fill="#FCFCFE"/>
</g>
<path d="M343.751 133.22H336.105V119.147H334.127V135H343.751V133.22Z" fill="black"/>
<g filter="url(#filter14_d)">
<rect x="284" y="106" width="32" height="42" rx="4.6" fill="#FCFCFE"/>
</g>
<path d="M297.083 135V129.463L298.984 127.365L304.708 135H307.268L300.346 125.991L306.685 119.147H304.202L297.259 126.848H297.083V119.147H295.106V135H297.083Z" fill="black"/>
<g filter="url(#filter15_d)">
<rect x="247" y="106" width="32" height="42" rx="4.6" fill="#FCFCFE"/>
</g>
<path d="M258.391 131.298C258.391 133.726 260.259 135.374 262.918 135.374C265.785 135.374 267.532 133.605 267.532 130.583V119.147H265.554V130.573C265.554 132.517 264.599 133.55 262.907 133.55C261.413 133.55 260.402 132.627 260.358 131.298H258.391Z" fill="black"/>
<g filter="url(#filter16_d)">
<rect x="209" y="106" width="32" height="42" rx="4.6" fill="#FCFCFE"/>
</g>
<path d="M231.828 135V119.147H229.851V126.002H221.149V119.147H219.172V135H221.149V127.782H229.851V135H231.828Z" fill="black"/>
<g filter="url(#filter17_d)">
<rect x="172" y="106" width="32" height="42" rx="4.6" fill="#FCFCFE"/>
</g>
<path d="M195.421 128.87V126.936H188.994V128.672H193.455V129.056C193.455 131.737 191.532 133.55 188.698 133.55C185.512 133.55 183.534 131.067 183.534 127.068C183.534 123.124 185.545 120.597 188.687 120.597C191.038 120.597 192.631 121.729 193.312 123.871H195.323C194.751 120.729 192.202 118.773 188.687 118.773C184.347 118.773 181.502 122.058 181.502 127.068C181.502 132.144 184.303 135.374 188.687 135.374C192.741 135.374 195.421 132.781 195.421 128.87Z" fill="black"/>
<g filter="url(#filter18_d)">
<rect x="134" y="106" width="32" height="42" rx="4.6" fill="#FCFCFE"/>
</g>
<path d="M148.061 135V128.134H155.081V126.376H148.061V120.927H155.708V119.147H146.083V135H148.061Z" fill="black"/>
<g filter="url(#filter19_d)">
<rect x="97" y="106" width="32" height="42" rx="4.6" fill="#FCFCFE"/>
</g>
<path d="M107.348 119.147V135H112.786C117.499 135 120.268 132.067 120.268 127.068C120.268 122.08 117.488 119.147 112.786 119.147H107.348ZM109.325 120.927H112.654C116.17 120.927 118.246 123.212 118.246 127.09C118.246 130.957 116.192 133.22 112.654 133.22H109.325V120.927Z" fill="black"/>
<g filter="url(#filter20_d)">
<rect x="59" y="106" width="32" height="42" rx="4.6" fill="#FCFCFE"/>
</g>
<path d="M69.5894 130.858C69.7981 133.594 72.1162 135.374 75.478 135.374C79.1035 135.374 81.3997 133.517 81.3997 130.605C81.3997 128.276 80.0813 127.002 76.7964 126.178L75.1375 125.739C72.9512 125.178 72.0833 124.464 72.0833 123.223C72.0833 121.619 73.4785 120.564 75.5879 120.564C77.5654 120.564 78.9058 121.531 79.1804 123.157H81.1689C81.0042 120.597 78.719 118.773 75.6538 118.773C72.303 118.773 70.0508 120.597 70.0508 123.289C70.0508 125.541 71.2922 126.837 74.1597 127.562L76.1921 128.09C78.3784 128.639 79.3672 129.496 79.3672 130.847C79.3672 132.418 77.7961 133.572 75.6648 133.572C73.4126 133.572 71.8306 132.517 71.5889 130.858H69.5894Z" fill="black"/>
<g filter="url(#filter21_d)">
<rect x="22" y="106" width="32" height="42" rx="4.6" fill="#FCFCFE"/>
</g>
<path d="M42.7461 135H44.8225L38.9778 119.147H37.0222L31.1775 135H33.2539L34.8469 130.463H41.1531L42.7461 135ZM37.9121 121.707H38.0879L40.5708 128.782H35.4292L37.9121 121.707Z" fill="black"/>
<g filter="url(#filter22_d)">
<rect x="340" y="52" width="32" height="42" rx="4.6" fill="#FCFCFE"/>
</g>
<path d="M351.369 65.1467V81H353.347V75.342H357.335C360.312 75.342 362.433 73.2437 362.433 70.2773C362.433 67.2561 360.356 65.1467 357.357 65.1467H351.369ZM353.347 66.9045H356.841C359.137 66.9045 360.4 68.1021 360.4 70.2773C360.4 72.3757 359.093 73.5842 356.841 73.5842H353.347V66.9045Z" fill="black"/>
<g filter="url(#filter23_d)">
<rect x="303" y="52" width="32" height="42" rx="4.6" fill="#FCFCFE"/>
</g>
<path d="M319 64.7732C314.518 64.7732 311.727 67.9702 311.727 73.0679C311.727 78.1436 314.452 81.3735 319 81.3735C323.526 81.3735 326.273 78.1326 326.273 73.0679C326.273 67.9812 323.504 64.7732 319 64.7732ZM319 66.5969C322.241 66.5969 324.24 69.1018 324.24 73.0679C324.24 77.001 322.252 79.5498 319 79.5498C315.704 79.5498 313.76 77.001 313.76 73.0679C313.76 69.1018 315.77 66.5969 319 66.5969Z" fill="black"/>
<g filter="url(#filter24_d)">
<rect x="265" y="52" width="32" height="42" rx="4.6" fill="#FCFCFE"/>
</g>
<path d="M282.489 81V65.1467H280.511V81H282.489Z" fill="black"/>
<g filter="url(#filter25_d)">
<rect x="228" y="52" width="32" height="42" rx="4.6" fill="#FCFCFE"/>
</g>
<path d="M240.182 65.1467H238.205V75.5508C238.205 78.9346 240.567 81.3735 244.5 81.3735C248.433 81.3735 250.795 78.9346 250.795 75.5508V65.1467H248.818V75.4189C248.818 77.814 247.247 79.5498 244.5 79.5498C241.753 79.5498 240.182 77.814 240.182 75.4189V65.1467Z" fill="black"/>
<g filter="url(#filter26_d)">
<rect x="190" y="52" width="32" height="42" rx="4.6" fill="#FCFCFE"/>
</g>
<path d="M207.489 81V74.1775L213.114 65.1467H210.862L206.588 72.189H206.412L202.138 65.1467H199.886L205.511 74.1775V81H207.489Z" fill="black"/>
<g filter="url(#filter27_d)">
<rect x="153" y="52" width="32" height="42" rx="4.6" fill="#FCFCFE"/>
</g>
<path d="M170.489 81V66.9265H175.597V65.1467H163.403V66.9265H168.511V81H170.489Z" fill="black"/>
<g filter="url(#filter28_d)">
<rect x="115" y="52" width="32" height="42" rx="4.6" fill="#FCFCFE"/>
</g>
<path d="M128.149 74.7268H132.049L135.444 81H137.762L134.093 74.4192C136.081 73.793 137.279 72.0791 137.279 69.8708C137.279 67.0144 135.279 65.1467 132.225 65.1467H126.172V81H128.149V74.7268ZM128.149 66.9045H131.961C134.005 66.9045 135.235 68.0361 135.235 69.9368C135.235 71.8813 134.082 72.969 132.049 72.969H128.149V66.9045Z" fill="black"/>
<g filter="url(#filter29_d)">
<rect x="78" y="52" width="32" height="42" rx="4.6" fill="#FCFCFE"/>
</g>
<path d="M99.1416 79.2202H91.2974V73.771H98.7351V72.0132H91.2974V66.9265H99.1416V65.1467H89.3198V81H99.1416V79.2202Z" fill="black"/>
<g filter="url(#filter30_d)">
<rect x="40" y="52" width="32" height="42" rx="4.6" fill="#FCFCFE"/>
</g>
<path d="M55.9341 68.4866H56.0659L59.7134 81H61.5811L65.8987 65.1467H63.8333L60.6802 78.0337H60.5483L56.9998 65.1467H55.0002L51.4517 78.0337H51.3198L48.1667 65.1467H46.1013L50.4189 81H52.2866L55.9341 68.4866Z" fill="black"/>
<g filter="url(#filter31_d)">
<rect x="3" y="52" width="32" height="42" rx="4.6" fill="#FCFCFE"/>
</g>
<path d="M19.011 81.3735C20.0327 81.3735 20.9995 81.2087 21.8455 80.8901L23.2407 82.7908H25.46L23.4495 80.0002C25.2512 78.7039 26.262 76.2319 26.262 73.0789C26.262 67.9702 23.4714 64.7732 19.011 64.7732C14.5286 64.7732 11.7271 67.9592 11.7271 73.0789C11.7271 78.2205 14.4956 81.3735 19.011 81.3735ZM19.022 79.5498C15.77 79.5498 13.7595 77.0779 13.7595 73.0789C13.7595 69.0908 15.781 66.5969 19.011 66.5969C22.219 66.5969 24.2295 69.1018 24.2295 73.0789C24.2295 75.4958 23.5374 77.3855 22.2959 78.3743L20.8567 76.4626H18.6155L20.7139 79.3081C20.1646 79.4729 19.6042 79.5498 19.022 79.5498Z" fill="black"/>
<rect width="375" height="44" fill="#D1D5DB"/>
<path d="M63.291 29V16.3174H61.709V29H63.291Z" fill="black"/>
<path d="M182.745 18.9893H182.851L185.769 29H187.263L190.717 16.3174H189.064L186.542 26.627H186.437L183.598 16.3174H181.998L179.159 26.627H179.054L176.531 16.3174H174.879L178.333 29H179.827L182.745 18.9893ZM198.328 26.5479C197.933 27.3828 197.106 27.8311 195.885 27.8311C194.276 27.8311 193.23 26.6445 193.151 24.7725V24.7021H199.963V24.1221C199.963 21.1777 198.407 19.3584 195.85 19.3584C193.248 19.3584 191.578 21.292 191.578 24.2715C191.578 27.2686 193.222 29.167 195.85 29.167C197.924 29.167 199.4 28.165 199.84 26.5479H198.328ZM195.832 20.6943C197.335 20.6943 198.337 21.8018 198.372 23.4805H193.151C193.266 21.8018 194.32 20.6943 195.832 20.6943Z" fill="black"/>
<path d="M292.839 29V17.7412H296.926V16.3174H287.17V17.7412H291.257V29H292.839ZM299.264 29H300.775V23.3926C300.775 21.793 301.707 20.7207 303.403 20.7207C304.836 20.7207 305.592 21.5557 305.592 23.2344V29H307.104V22.8652C307.104 20.6416 305.838 19.3584 303.834 19.3584C302.384 19.3584 301.391 19.9736 300.916 21.0195H300.775V15.7637H299.264V29ZM312.5 29.167C313.766 29.167 314.803 28.6133 315.418 27.6025H315.559V29H317V22.5137C317 20.5449 315.708 19.3584 313.396 19.3584C311.375 19.3584 309.881 20.3604 309.679 21.8809H311.208C311.419 21.1338 312.21 20.7031 313.344 20.7031C314.759 20.7031 315.488 21.3447 315.488 22.5137V23.375L312.755 23.542C310.549 23.6738 309.301 24.6494 309.301 26.3457C309.301 28.0771 310.663 29.167 312.5 29.167ZM312.781 27.8398C311.683 27.8398 310.865 27.2773 310.865 26.3105C310.865 25.3613 311.498 24.8604 312.939 24.7637L315.488 24.5967V25.4668C315.488 26.8203 314.337 27.8398 312.781 27.8398ZM319.795 29H321.307V23.3926C321.307 21.7314 322.282 20.7207 323.794 20.7207C325.306 20.7207 326.026 21.5293 326.026 23.2344V29H327.538V22.8652C327.538 20.6152 326.352 19.3584 324.225 19.3584C322.774 19.3584 321.852 19.9736 321.377 21.0195H321.236V19.5254H319.795V29ZM332.047 23.665H331.906V15.7637H330.395V29H331.906V25.4053L332.812 24.5615L336.362 29H338.287L333.937 23.5859L338.015 19.5254H336.16L332.047 23.665Z" fill="black"/>
<rect x="250" y="9" width="1" height="26" fill="#BDBEC3"/>
<rect x="125" y="9" width="1" height="26" fill="#BDBEC3"/>
<rect x="112" y="314" width="151" height="15" fill="#D1D5DB"/>
<defs>
<filter id="filter0_b" x="-108.731" y="-64.7313" width="592.463" height="508.463" filterUnits="userSpaceOnUse" color-interpolation-filters="sRGB">
<feFlood flood-opacity="0" result="BackgroundImageFix"/>
<feGaussianBlur in="BackgroundImage" stdDeviation="54.3656"/>
<feComposite in2="SourceAlpha" operator="in" result="effect1_backgroundBlur"/>
<feBlend mode="normal" in="SourceGraphic" in2="effect1_backgroundBlur" result="shape"/>
</filter>
<filter id="filter1_d" x="284" y="214" width="88" height="43" filterUnits="userSpaceOnUse" color-interpolation-filters="sRGB">
<feFlood flood-opacity="0" result="BackgroundImageFix"/>
<feColorMatrix in="SourceAlpha" type="matrix" values="0 0 0 0 0 0 0 0 0 0 0 0 0 0 0 0 0 0 127 0"/>
<feOffset dy="1"/>
<feColorMatrix type="matrix" values="0 0 0 0 0.537255 0 0 0 0 0.541176 0 0 0 0 0.552941 0 0 0 1 0"/>
<feBlend mode="normal" in2="BackgroundImageFix" result="effect1_dropShadow"/>
<feBlend mode="normal" in="SourceGraphic" in2="effect1_dropShadow" result="shape"/>
</filter>
<filter id="filter2_d" x="96" y="214" width="182" height="43" filterUnits="userSpaceOnUse" color-interpolation-filters="sRGB">
<feFlood flood-opacity="0" result="BackgroundImageFix"/>
<feColorMatrix in="SourceAlpha" type="matrix" values="0 0 0 0 0 0 0 0 0 0 0 0 0 0 0 0 0 0 127 0"/>
<feOffset dy="1"/>
<feColorMatrix type="matrix" values="0 0 0 0 0.537255 0 0 0 0 0.541176 0 0 0 0 0.552941 0 0 0 1 0"/>
<feBlend mode="normal" in2="BackgroundImageFix" result="effect1_dropShadow"/>
<feBlend mode="normal" in="SourceGraphic" in2="effect1_dropShadow" result="shape"/>
</filter>
<filter id="filter3_d" x="3" y="214" width="87" height="43" filterUnits="userSpaceOnUse" color-interpolation-filters="sRGB">
<feFlood flood-opacity="0" result="BackgroundImageFix"/>
<feColorMatrix in="SourceAlpha" type="matrix" values="0 0 0 0 0 0 0 0 0 0 0 0 0 0 0 0 0 0 127 0"/>
<feOffset dy="1"/>
<feColorMatrix type="matrix" values="0 0 0 0 0.537255 0 0 0 0 0.541176 0 0 0 0 0.552941 0 0 0 1 0"/>
<feBlend mode="normal" in2="BackgroundImageFix" result="effect1_dropShadow"/>
<feBlend mode="normal" in="SourceGraphic" in2="effect1_dropShadow" result="shape"/>
</filter>
<filter id="filter4_d" x="330" y="160" width="42" height="43" filterUnits="userSpaceOnUse" color-interpolation-filters="sRGB">
<feFlood flood-opacity="0" result="BackgroundImageFix"/>
<feColorMatrix in="SourceAlpha" type="matrix" values="0 0 0 0 0 0 0 0 0 0 0 0 0 0 0 0 0 0 127 0"/>
<feOffset dy="1"/>
<feColorMatrix type="matrix" values="0 0 0 0 0.537255 0 0 0 0 0.541176 0 0 0 0 0.552941 0 0 0 1 0"/>
<feBlend mode="normal" in2="BackgroundImageFix" result="effect1_dropShadow"/>
<feBlend mode="normal" in="SourceGraphic" in2="effect1_dropShadow" result="shape"/>
</filter>
<filter id="filter5_d" x="3" y="160" width="42" height="43" filterUnits="userSpaceOnUse" color-interpolation-filters="sRGB">
<feFlood flood-opacity="0" result="BackgroundImageFix"/>
<feColorMatrix in="SourceAlpha" type="matrix" values="0 0 0 0 0 0 0 0 0 0 0 0 0 0 0 0 0 0 127 0"/>
<feOffset dy="1"/>
<feColorMatrix type="matrix" values="0 0 0 0 0.537255 0 0 0 0 0.541176 0 0 0 0 0.552941 0 0 0 1 0"/>
<feBlend mode="normal" in2="BackgroundImageFix" result="effect1_dropShadow"/>
<feBlend mode="normal" in="SourceGraphic" in2="effect1_dropShadow" result="shape"/>
</filter>
<filter id="filter6_d" x="285" y="160" width="32" height="43" filterUnits="userSpaceOnUse" color-interpolation-filters="sRGB">
<feFlood flood-opacity="0" result="BackgroundImageFix"/>
<feColorMatrix in="SourceAlpha" type="matrix" values="0 0 0 0 0 0 0 0 0 0 0 0 0 0 0 0 0 0 127 0"/>
<feOffset dy="1"/>
<feColorMatrix type="matrix" values="0 0 0 0 0.537255 0 0 0 0 0.541176 0 0 0 0 0.552941 0 0 0 1 0"/>
<feBlend mode="normal" in2="BackgroundImageFix" result="effect1_dropShadow"/>
<feBlend mode="normal" in="SourceGraphic" in2="effect1_dropShadow" result="shape"/>
</filter>
<filter id="filter7_d" x="247" y="160" width="32" height="43" filterUnits="userSpaceOnUse" color-interpolation-filters="sRGB">
<feFlood flood-opacity="0" result="BackgroundImageFix"/>
<feColorMatrix in="SourceAlpha" type="matrix" values="0 0 0 0 0 0 0 0 0 0 0 0 0 0 0 0 0 0 127 0"/>
<feOffset dy="1"/>
<feColorMatrix type="matrix" values="0 0 0 0 0.537255 0 0 0 0 0.541176 0 0 0 0 0.552941 0 0 0 1 0"/>
<feBlend mode="normal" in2="BackgroundImageFix" result="effect1_dropShadow"/>
<feBlend mode="normal" in="SourceGraphic" in2="effect1_dropShadow" result="shape"/>
</filter>
<filter id="filter8_d" x="209" y="160" width="32" height="43" filterUnits="userSpaceOnUse" color-interpolation-filters="sRGB">
<feFlood flood-opacity="0" result="BackgroundImageFix"/>
<feColorMatrix in="SourceAlpha" type="matrix" values="0 0 0 0 0 0 0 0 0 0 0 0 0 0 0 0 0 0 127 0"/>
<feOffset dy="1"/>
<feColorMatrix type="matrix" values="0 0 0 0 0.537255 0 0 0 0 0.541176 0 0 0 0 0.552941 0 0 0 1 0"/>
<feBlend mode="normal" in2="BackgroundImageFix" result="effect1_dropShadow"/>
<feBlend mode="normal" in="SourceGraphic" in2="effect1_dropShadow" result="shape"/>
</filter>
<filter id="filter9_d" x="172" y="160" width="32" height="43" filterUnits="userSpaceOnUse" color-interpolation-filters="sRGB">
<feFlood flood-opacity="0" result="BackgroundImageFix"/>
<feColorMatrix in="SourceAlpha" type="matrix" values="0 0 0 0 0 0 0 0 0 0 0 0 0 0 0 0 0 0 127 0"/>
<feOffset dy="1"/>
<feColorMatrix type="matrix" values="0 0 0 0 0.537255 0 0 0 0 0.541176 0 0 0 0 0.552941 0 0 0 1 0"/>
<feBlend mode="normal" in2="BackgroundImageFix" result="effect1_dropShadow"/>
<feBlend mode="normal" in="SourceGraphic" in2="effect1_dropShadow" result="shape"/>
</filter>
<filter id="filter10_d" x="134" y="160" width="32" height="43" filterUnits="userSpaceOnUse" color-interpolation-filters="sRGB">
<feFlood flood-opacity="0" result="BackgroundImageFix"/>
<feColorMatrix in="SourceAlpha" type="matrix" values="0 0 0 0 0 0 0 0 0 0 0 0 0 0 0 0 0 0 127 0"/>
<feOffset dy="1"/>
<feColorMatrix type="matrix" values="0 0 0 0 0.537255 0 0 0 0 0.541176 0 0 0 0 0.552941 0 0 0 1 0"/>
<feBlend mode="normal" in2="BackgroundImageFix" result="effect1_dropShadow"/>
<feBlend mode="normal" in="SourceGraphic" in2="effect1_dropShadow" result="shape"/>
</filter>
<filter id="filter11_d" x="97" y="160" width="32" height="43" filterUnits="userSpaceOnUse" color-interpolation-filters="sRGB">
<feFlood flood-opacity="0" result="BackgroundImageFix"/>
<feColorMatrix in="SourceAlpha" type="matrix" values="0 0 0 0 0 0 0 0 0 0 0 0 0 0 0 0 0 0 127 0"/>
<feOffset dy="1"/>
<feColorMatrix type="matrix" values="0 0 0 0 0.537255 0 0 0 0 0.541176 0 0 0 0 0.552941 0 0 0 1 0"/>
<feBlend mode="normal" in2="BackgroundImageFix" result="effect1_dropShadow"/>
<feBlend mode="normal" in="SourceGraphic" in2="effect1_dropShadow" result="shape"/>
</filter>
<filter id="filter12_d" x="59" y="160" width="32" height="43" filterUnits="userSpaceOnUse" color-interpolation-filters="sRGB">
<feFlood flood-opacity="0" result="BackgroundImageFix"/>
<feColorMatrix in="SourceAlpha" type="matrix" values="0 0 0 0 0 0 0 0 0 0 0 0 0 0 0 0 0 0 127 0"/>
<feOffset dy="1"/>
<feColorMatrix type="matrix" values="0 0 0 0 0.537255 0 0 0 0 0.541176 0 0 0 0 0.552941 0 0 0 1 0"/>
<feBlend mode="normal" in2="BackgroundImageFix" result="effect1_dropShadow"/>
<feBlend mode="normal" in="SourceGraphic" in2="effect1_dropShadow" result="shape"/>
</filter>
<filter id="filter13_d" x="322" y="106" width="32" height="43" filterUnits="userSpaceOnUse" color-interpolation-filters="sRGB">
<feFlood flood-opacity="0" result="BackgroundImageFix"/>
<feColorMatrix in="SourceAlpha" type="matrix" values="0 0 0 0 0 0 0 0 0 0 0 0 0 0 0 0 0 0 127 0"/>
<feOffset dy="1"/>
<feColorMatrix type="matrix" values="0 0 0 0 0.537255 0 0 0 0 0.541176 0 0 0 0 0.552941 0 0 0 1 0"/>
<feBlend mode="normal" in2="BackgroundImageFix" result="effect1_dropShadow"/>
<feBlend mode="normal" in="SourceGraphic" in2="effect1_dropShadow" result="shape"/>
</filter>
<filter id="filter14_d" x="284" y="106" width="32" height="43" filterUnits="userSpaceOnUse" color-interpolation-filters="sRGB">
<feFlood flood-opacity="0" result="BackgroundImageFix"/>
<feColorMatrix in="SourceAlpha" type="matrix" values="0 0 0 0 0 0 0 0 0 0 0 0 0 0 0 0 0 0 127 0"/>
<feOffset dy="1"/>
<feColorMatrix type="matrix" values="0 0 0 0 0.537255 0 0 0 0 0.541176 0 0 0 0 0.552941 0 0 0 1 0"/>
<feBlend mode="normal" in2="BackgroundImageFix" result="effect1_dropShadow"/>
<feBlend mode="normal" in="SourceGraphic" in2="effect1_dropShadow" result="shape"/>
</filter>
<filter id="filter15_d" x="247" y="106" width="32" height="43" filterUnits="userSpaceOnUse" color-interpolation-filters="sRGB">
<feFlood flood-opacity="0" result="BackgroundImageFix"/>
<feColorMatrix in="SourceAlpha" type="matrix" values="0 0 0 0 0 0 0 0 0 0 0 0 0 0 0 0 0 0 127 0"/>
<feOffset dy="1"/>
<feColorMatrix type="matrix" values="0 0 0 0 0.537255 0 0 0 0 0.541176 0 0 0 0 0.552941 0 0 0 1 0"/>
<feBlend mode="normal" in2="BackgroundImageFix" result="effect1_dropShadow"/>
<feBlend mode="normal" in="SourceGraphic" in2="effect1_dropShadow" result="shape"/>
</filter>
<filter id="filter16_d" x="209" y="106" width="32" height="43" filterUnits="userSpaceOnUse" color-interpolation-filters="sRGB">
<feFlood flood-opacity="0" result="BackgroundImageFix"/>
<feColorMatrix in="SourceAlpha" type="matrix" values="0 0 0 0 0 0 0 0 0 0 0 0 0 0 0 0 0 0 127 0"/>
<feOffset dy="1"/>
<feColorMatrix type="matrix" values="0 0 0 0 0.537255 0 0 0 0 0.541176 0 0 0 0 0.552941 0 0 0 1 0"/>
<feBlend mode="normal" in2="BackgroundImageFix" result="effect1_dropShadow"/>
<feBlend mode="normal" in="SourceGraphic" in2="effect1_dropShadow" result="shape"/>
</filter>
<filter id="filter17_d" x="172" y="106" width="32" height="43" filterUnits="userSpaceOnUse" color-interpolation-filters="sRGB">
<feFlood flood-opacity="0" result="BackgroundImageFix"/>
<feColorMatrix in="SourceAlpha" type="matrix" values="0 0 0 0 0 0 0 0 0 0 0 0 0 0 0 0 0 0 127 0"/>
<feOffset dy="1"/>
<feColorMatrix type="matrix" values="0 0 0 0 0.537255 0 0 0 0 0.541176 0 0 0 0 0.552941 0 0 0 1 0"/>
<feBlend mode="normal" in2="BackgroundImageFix" result="effect1_dropShadow"/>
<feBlend mode="normal" in="SourceGraphic" in2="effect1_dropShadow" result="shape"/>
</filter>
<filter id="filter18_d" x="134" y="106" width="32" height="43" filterUnits="userSpaceOnUse" color-interpolation-filters="sRGB">
<feFlood flood-opacity="0" result="BackgroundImageFix"/>
<feColorMatrix in="SourceAlpha" type="matrix" values="0 0 0 0 0 0 0 0 0 0 0 0 0 0 0 0 0 0 127 0"/>
<feOffset dy="1"/>
<feColorMatrix type="matrix" values="0 0 0 0 0.537255 0 0 0 0 0.541176 0 0 0 0 0.552941 0 0 0 1 0"/>
<feBlend mode="normal" in2="BackgroundImageFix" result="effect1_dropShadow"/>
<feBlend mode="normal" in="SourceGraphic" in2="effect1_dropShadow" result="shape"/>
</filter>
<filter id="filter19_d" x="97" y="106" width="32" height="43" filterUnits="userSpaceOnUse" color-interpolation-filters="sRGB">
<feFlood flood-opacity="0" result="BackgroundImageFix"/>
<feColorMatrix in="SourceAlpha" type="matrix" values="0 0 0 0 0 0 0 0 0 0 0 0 0 0 0 0 0 0 127 0"/>
<feOffset dy="1"/>
<feColorMatrix type="matrix" values="0 0 0 0 0.537255 0 0 0 0 0.541176 0 0 0 0 0.552941 0 0 0 1 0"/>
<feBlend mode="normal" in2="BackgroundImageFix" result="effect1_dropShadow"/>
<feBlend mode="normal" in="SourceGraphic" in2="effect1_dropShadow" result="shape"/>
</filter>
<filter id="filter20_d" x="59" y="106" width="32" height="43" filterUnits="userSpaceOnUse" color-interpolation-filters="sRGB">
<feFlood flood-opacity="0" result="BackgroundImageFix"/>
<feColorMatrix in="SourceAlpha" type="matrix" values="0 0 0 0 0 0 0 0 0 0 0 0 0 0 0 0 0 0 127 0"/>
<feOffset dy="1"/>
<feColorMatrix type="matrix" values="0 0 0 0 0.537255 0 0 0 0 0.541176 0 0 0 0 0.552941 0 0 0 1 0"/>
<feBlend mode="normal" in2="BackgroundImageFix" result="effect1_dropShadow"/>
<feBlend mode="normal" in="SourceGraphic" in2="effect1_dropShadow" result="shape"/>
</filter>
<filter id="filter21_d" x="22" y="106" width="32" height="43" filterUnits="userSpaceOnUse" color-interpolation-filters="sRGB">
<feFlood flood-opacity="0" result="BackgroundImageFix"/>
<feColorMatrix in="SourceAlpha" type="matrix" values="0 0 0 0 0 0 0 0 0 0 0 0 0 0 0 0 0 0 127 0"/>
<feOffset dy="1"/>
<feColorMatrix type="matrix" values="0 0 0 0 0.537255 0 0 0 0 0.541176 0 0 0 0 0.552941 0 0 0 1 0"/>
<feBlend mode="normal" in2="BackgroundImageFix" result="effect1_dropShadow"/>
<feBlend mode="normal" in="SourceGraphic" in2="effect1_dropShadow" result="shape"/>
</filter>
<filter id="filter22_d" x="340" y="52" width="32" height="43" filterUnits="userSpaceOnUse" color-interpolation-filters="sRGB">
<feFlood flood-opacity="0" result="BackgroundImageFix"/>
<feColorMatrix in="SourceAlpha" type="matrix" values="0 0 0 0 0 0 0 0 0 0 0 0 0 0 0 0 0 0 127 0"/>
<feOffset dy="1"/>
<feColorMatrix type="matrix" values="0 0 0 0 0.537255 0 0 0 0 0.541176 0 0 0 0 0.552941 0 0 0 1 0"/>
<feBlend mode="normal" in2="BackgroundImageFix" result="effect1_dropShadow"/>
<feBlend mode="normal" in="SourceGraphic" in2="effect1_dropShadow" result="shape"/>
</filter>
<filter id="filter23_d" x="303" y="52" width="32" height="43" filterUnits="userSpaceOnUse" color-interpolation-filters="sRGB">
<feFlood flood-opacity="0" result="BackgroundImageFix"/>
<feColorMatrix in="SourceAlpha" type="matrix" values="0 0 0 0 0 0 0 0 0 0 0 0 0 0 0 0 0 0 127 0"/>
<feOffset dy="1"/>
<feColorMatrix type="matrix" values="0 0 0 0 0.537255 0 0 0 0 0.541176 0 0 0 0 0.552941 0 0 0 1 0"/>
<feBlend mode="normal" in2="BackgroundImageFix" result="effect1_dropShadow"/>
<feBlend mode="normal" in="SourceGraphic" in2="effect1_dropShadow" result="shape"/>
</filter>
<filter id="filter24_d" x="265" y="52" width="32" height="43" filterUnits="userSpaceOnUse" color-interpolation-filters="sRGB">
<feFlood flood-opacity="0" result="BackgroundImageFix"/>
<feColorMatrix in="SourceAlpha" type="matrix" values="0 0 0 0 0 0 0 0 0 0 0 0 0 0 0 0 0 0 127 0"/>
<feOffset dy="1"/>
<feColorMatrix type="matrix" values="0 0 0 0 0.537255 0 0 0 0 0.541176 0 0 0 0 0.552941 0 0 0 1 0"/>
<feBlend mode="normal" in2="BackgroundImageFix" result="effect1_dropShadow"/>
<feBlend mode="normal" in="SourceGraphic" in2="effect1_dropShadow" result="shape"/>
</filter>
<filter id="filter25_d" x="228" y="52" width="32" height="43" filterUnits="userSpaceOnUse" color-interpolation-filters="sRGB">
<feFlood flood-opacity="0" result="BackgroundImageFix"/>
<feColorMatrix in="SourceAlpha" type="matrix" values="0 0 0 0 0 0 0 0 0 0 0 0 0 0 0 0 0 0 127 0"/>
<feOffset dy="1"/>
<feColorMatrix type="matrix" values="0 0 0 0 0.537255 0 0 0 0 0.541176 0 0 0 0 0.552941 0 0 0 1 0"/>
<feBlend mode="normal" in2="BackgroundImageFix" result="effect1_dropShadow"/>
<feBlend mode="normal" in="SourceGraphic" in2="effect1_dropShadow" result="shape"/>
</filter>
<filter id="filter26_d" x="190" y="52" width="32" height="43" filterUnits="userSpaceOnUse" color-interpolation-filters="sRGB">
<feFlood flood-opacity="0" result="BackgroundImageFix"/>
<feColorMatrix in="SourceAlpha" type="matrix" values="0 0 0 0 0 0 0 0 0 0 0 0 0 0 0 0 0 0 127 0"/>
<feOffset dy="1"/>
<feColorMatrix type="matrix" values="0 0 0 0 0.537255 0 0 0 0 0.541176 0 0 0 0 0.552941 0 0 0 1 0"/>
<feBlend mode="normal" in2="BackgroundImageFix" result="effect1_dropShadow"/>
<feBlend mode="normal" in="SourceGraphic" in2="effect1_dropShadow" result="shape"/>
</filter>
<filter id="filter27_d" x="153" y="52" width="32" height="43" filterUnits="userSpaceOnUse" color-interpolation-filters="sRGB">
<feFlood flood-opacity="0" result="BackgroundImageFix"/>
<feColorMatrix in="SourceAlpha" type="matrix" values="0 0 0 0 0 0 0 0 0 0 0 0 0 0 0 0 0 0 127 0"/>
<feOffset dy="1"/>
<feColorMatrix type="matrix" values="0 0 0 0 0.537255 0 0 0 0 0.541176 0 0 0 0 0.552941 0 0 0 1 0"/>
<feBlend mode="normal" in2="BackgroundImageFix" result="effect1_dropShadow"/>
<feBlend mode="normal" in="SourceGraphic" in2="effect1_dropShadow" result="shape"/>
</filter>
<filter id="filter28_d" x="115" y="52" width="32" height="43" filterUnits="userSpaceOnUse" color-interpolation-filters="sRGB">
<feFlood flood-opacity="0" result="BackgroundImageFix"/>
<feColorMatrix in="SourceAlpha" type="matrix" values="0 0 0 0 0 0 0 0 0 0 0 0 0 0 0 0 0 0 127 0"/>
<feOffset dy="1"/>
<feColorMatrix type="matrix" values="0 0 0 0 0.537255 0 0 0 0 0.541176 0 0 0 0 0.552941 0 0 0 1 0"/>
<feBlend mode="normal" in2="BackgroundImageFix" result="effect1_dropShadow"/>
<feBlend mode="normal" in="SourceGraphic" in2="effect1_dropShadow" result="shape"/>
</filter>
<filter id="filter29_d" x="78" y="52" width="32" height="43" filterUnits="userSpaceOnUse" color-interpolation-filters="sRGB">
<feFlood flood-opacity="0" result="BackgroundImageFix"/>
<feColorMatrix in="SourceAlpha" type="matrix" values="0 0 0 0 0 0 0 0 0 0 0 0 0 0 0 0 0 0 127 0"/>
<feOffset dy="1"/>
<feColorMatrix type="matrix" values="0 0 0 0 0.537255 0 0 0 0 0.541176 0 0 0 0 0.552941 0 0 0 1 0"/>
<feBlend mode="normal" in2="BackgroundImageFix" result="effect1_dropShadow"/>
<feBlend mode="normal" in="SourceGraphic" in2="effect1_dropShadow" result="shape"/>
</filter>
<filter id="filter30_d" x="40" y="52" width="32" height="43" filterUnits="userSpaceOnUse" color-interpolation-filters="sRGB">
<feFlood flood-opacity="0" result="BackgroundImageFix"/>
<feColorMatrix in="SourceAlpha" type="matrix" values="0 0 0 0 0 0 0 0 0 0 0 0 0 0 0 0 0 0 127 0"/>
<feOffset dy="1"/>
<feColorMatrix type="matrix" values="0 0 0 0 0.537255 0 0 0 0 0.541176 0 0 0 0 0.552941 0 0 0 1 0"/>
<feBlend mode="normal" in2="BackgroundImageFix" result="effect1_dropShadow"/>
<feBlend mode="normal" in="SourceGraphic" in2="effect1_dropShadow" result="shape"/>
</filter>
<filter id="filter31_d" x="3" y="52" width="32" height="43" filterUnits="userSpaceOnUse" color-interpolation-filters="sRGB">
<feFlood flood-opacity="0" result="BackgroundImageFix"/>
<feColorMatrix in="SourceAlpha" type="matrix" values="0 0 0 0 0 0 0 0 0 0 0 0 0 0 0 0 0 0 127 0"/>
<feOffset dy="1"/>
<feColorMatrix type="matrix" values="0 0 0 0 0.537255 0 0 0 0 0.541176 0 0 0 0 0.552941 0 0 0 1 0"/>
<feBlend mode="normal" in2="BackgroundImageFix" result="effect1_dropShadow"/>
<feBlend mode="normal" in="SourceGraphic" in2="effect1_dropShadow" result="shape"/>
</filter>
</defs>
</svg>
