<?xml version="1.0" encoding="UTF-8"?>
<svg width="375px" height="335px" viewBox="0 0 375 335" version="1.1" xmlns="http://www.w3.org/2000/svg" xmlns:xlink="http://www.w3.org/1999/xlink">
    <!-- Generator: Sketch 64 (93537) - https://sketch.com -->
    <title>Artboard</title>
    <desc>Created with Sketch.</desc>
    <g id="Artboard" stroke="none" stroke-width="1" fill="none" fill-rule="evenodd">
        <rect fill="#D1D5DB" x="0" y="0" width="375" height="335"></rect>
        <g id="keyboard">
            <rect id="Rectangle" fill="#D1D5DB" fill-rule="nonzero" x="0" y="44" width="375" height="291"></rect>
            <path d="M330.833,295.332 C331.294,295.332 331.667,295.705 331.667,296.165 C331.667,296.193 331.665,296.22 331.663,296.247 L331.663,298.542 L331.658,298.542 L331.658,298.549 C331.658,298.564 331.659,298.58 331.661,298.596 C331.662,298.61 331.663,298.624 331.663,298.639 L331.663,298.952 L331.678,298.952 C331.926,301.916 334.351,304.226 337.324,304.329 L337.66,304.329 C340.634,304.228 343.06,301.917 343.307,298.952 L343.327,298.952 L343.327,296.175 L343.333,296.175 L343.333,296.165 C343.333,295.705 343.706,295.332 344.167,295.332 C344.627,295.332 344.999993,295.705 344.999993,296.165 C344.999993,296.189 344.999,296.213 344.997,296.236 L344.997,298.282 L344.987,298.282 L344.987,298.282 C344.989,302.111 342.128,305.336 338.327,305.79 L338.327,308.323 L341.467,308.323 L341.467,308.334 C341.478,308.333 341.489,308.333 341.499993,308.333 C341.96,308.333 342.333,308.706 342.333,309.167 C342.333,309.627 341.96,310 341.499993,310 C341.489,310 341.478,310 341.467,309.999 L341.467,310 L333.53,310 L333.53,309.999 C333.52,310 333.51,310 333.499993,310 C333.04,310 332.667,309.627 332.667,309.167 C332.667,308.706 333.04,308.333 333.499993,308.333 C333.51,308.333 333.52,308.333 333.53,308.334 L333.53,308.323 L336.677,308.323 L336.677,305.79 C332.867,305.347 329.995,302.118 329.999993,298.282 C329.999993,298.262 330.002,298.243 330.003,298.225 L330.003,298.225 C330.005,298.209 330.006,298.194 330.006,298.179 L330.006,296.268 C330.002,296.235 329.999993,296.2 329.999993,296.165 C329.999993,295.705 330.373,295.332 330.833,295.332 Z M341.993,296.879 C341.993,297.382 341.993,297.912 341.967,298.415 C341.946,298.869 341.877,299.32 341.76,299.759 C341.499,300.681 340.943,301.491 340.177,302.066 C338.605,303.306 336.388,303.306 334.817,302.066 C334.048,301.493 333.492,300.682 333.233,299.759 C333.115,299.32 333.046,298.869 333.026,298.415 C332.997,297.912 332.999912,297.382 332.999912,296.879 L332.999912,292.665 C332.999912,292.165 333.003,289.955 332.999912,289.581 C333.013,289.125 333.092,288.672 333.233,288.238 C333.767,286.324 335.51,285 337.497,285 C339.484,285 341.227,286.324 341.761,288.238 C341.886,288.676 341.964,289.126 341.994,289.581 C342.024,290.085 341.994,292.165 341.994,292.665 L341.994,296.879 L341.993,296.879 Z M340.327,297.665 C340.327,297.985 340.32,298.092 340.3,298.412 C340.288,298.703 340.245,298.991 340.17,299.272 C340.01,299.862 339.663,300.384 339.18,300.759 C338.191,301.528 336.806,301.528 335.817,300.759 C335.332,300.385 334.983,299.863 334.823,299.272 C334.75,298.991 334.706,298.703 334.693,298.412 C334.677,298.092 334.673,297.985 334.673,297.665 C334.673,293.232 334.653,289.945 334.68,289.591 C334.699,289.3 334.747,289.012 334.823,288.731 C334.983,288.14 335.332,287.618 335.817,287.244 C336.806,286.475 338.191,286.475 339.18,287.244 C339.663,287.619 340.01,288.141 340.17,288.731 C340.255,289.011 340.308,289.3 340.33,289.591 C340.353,289.971 340.327,293.218 340.327,297.665 Z" id="Shape" fill="#50555C"></path>
            <path d="M38.5,284 C45.9558,284 52,290.044 52,297.5 C52,304.956 45.9558,311 38.5,311 C31.0442,311 25,304.956 25,297.5 C25,290.044 31.0442,284 38.5,284 Z M38.5,285.572999 C45.0871,285.572999 50.4264,290.914 50.4259,297.501 C50.4254,304.088 45.0853,309.427 38.4982,309.427 C31.9111,309.427 26.5714,304.087 26.5714,297.5 C26.5714,294.336 27.8283,291.303 30.0654,289.066 C32.3025,286.829 35.3365,285.572 38.5,285.572999 Z M34.2293,291.644 C33.812,291.639 33.4102,291.802 33.1137,292.096 C32.8173,292.389 32.651,292.79 32.6520946,293.207 C32.6520946,294.078 33.3582,294.784 34.2293,294.784 C35.1003,294.784 35.8064054,294.078 35.8064054,293.207 C35.8075,292.79 35.6413,292.389 35.3448,292.096 C35.0484,291.802 34.6465,291.639 34.2293,291.644 Z M47.4967,299.825 C46.7779,303.71 43.0286,306.953 38.4983,306.953 C34.0042,306.953 30.2768,303.757 29.5157,299.917 C29.3615,298.958 30.1465,298.732 30.886,298.911 C33.3597,299.626 35.9251,299.974 38.5,299.943 C41.0691,299.973 43.6286,299.626 46.0971,298.914 C46.816,298.732 47.5858,298.938 47.4967,299.825 Z M45.0563,300.365 C44.9861,300.392 44.9149,300.413 44.843,300.436 C44.8356,300.44 45.0731,300.362 45.0661,300.365 C42.9315,300.953 40.725,301.238 38.5111,301.212 C35.8692,301.212 33.5063,300.919 31.8803,300.335 C30.7014,299.984 30.9275,301.371 31.7561,301.796 C33.8758,302.761 36.182,303.248 38.5108,303.221 C41.281,303.221 43.7495,302.576 45.3799,301.742 C46.1515,301.246 46.304,299.916 45.0563,300.365 Z M42.7795,291.644 C42.3622,291.639 41.9603,291.802 41.6638,292.096 C41.3673,292.389 41.201,292.79 41.202,293.207 C41.1937,293.776 41.4925,294.305 41.9839,294.592 C42.4754,294.879 43.0833,294.879 43.5747,294.592 C44.0662,294.305 44.365,293.776 44.3566,293.207 C44.3577,292.79 44.1914,292.389 43.8949,292.096 C43.5985,291.802 43.1967,291.639 42.7795,291.644 Z" id="Shape" fill="#50555C"></path>
            <path d="M284,221.36 C284,218.784 284,217.496 284.501,216.512 C284.942,215.646 285.646,214.942 286.512,214.501 C287.496,214 288.784,214 291.36,214 L364.64,214 C367.216,214 368.504,214 369.488,214.501 C370.354,214.942 371.058,215.646 371.499,216.512 C372,217.496 372,218.784 372,221.36 L372,248.64 C372,251.216 372,252.504 371.499,253.488 C371.058,254.354 370.354,255.058 369.488,255.499 C368.504,256 367.216,256 364.64,256 L291.36,256 C288.784,256 287.496,256 286.512,255.499 C285.646,255.058 284.942,254.354 284.501,253.488 C284,252.504 284,251.216 284,248.64 L284,221.36 Z" id="Path" fill="#ADB3BC"></path>
            <path d="M307.191,241 L308.534,241 L308.534,235.781 C308.534,234.594 309.464,233.734 310.745,233.734 C311.011,233.734 311.495,233.781 311.605,233.812 L311.605,232.469 C311.433,232.445 311.152,232.43 310.933,232.43 C309.816,232.43 308.847,233.008 308.597,233.828 L308.472,233.828 L308.472,232.578 L307.191,232.578 L307.191,241 Z M318.308,238.82 C317.957,239.562 317.222,239.961 316.136,239.961 C314.707,239.961 313.777,238.906 313.707,237.242 L313.707,237.18 L319.761,237.18 L319.761,236.664 C319.761,234.047 318.378,232.43 316.105,232.43 C313.792,232.43 312.308,234.148 312.308,236.797 C312.308,239.461 313.769,241.148 316.105,241.148 C317.949,241.148 319.261,240.258 319.652,238.82 L318.308,238.82 Z M316.089,233.617 C317.425,233.617 318.316,234.602 318.347,236.094 L313.707,236.094 C313.808,234.602 314.746,233.617 316.089,233.617 Z M322.113,230.398 L322.113,232.578 L320.754,232.578 L320.754,233.703 L322.113,233.703 L322.113,238.812 C322.113,240.422 322.808,241.062 324.543,241.062 C324.808,241.062 325.066,241.031 325.332,240.984 L325.332,239.852 C325.082,239.875 324.949,239.883 324.707,239.883 C323.832,239.883 323.457,239.461 323.457,238.469 L323.457,233.703 L325.332,233.703 L325.332,232.578 L323.457,232.578 L323.457,230.398 L322.113,230.398 Z M333.856,232.578 L332.512,232.578 L332.512,237.562 C332.512,239.039 331.699,239.922 330.215,239.922 C328.871,239.922 328.309,239.219 328.309,237.703 L328.309,232.578 L326.965,232.578 L326.965,238.031 C326.965,240.023 327.949,241.148 329.84,241.148 C331.129,241.148 332.028,240.617 332.449,239.68 L332.574,239.68 L332.574,241 L333.856,241 L333.856,232.578 Z M336.067,241 L337.411,241 L337.411,235.781 C337.411,234.594 338.34,233.734 339.622,233.734 C339.887,233.734 340.372,233.781 340.481,233.812 L340.481,232.469 C340.309,232.445 340.028,232.43 339.809,232.43 C338.692,232.43 337.723,233.008 337.473,233.828 L337.348,233.828 L337.348,232.578 L336.067,232.578 L336.067,241 Z M341.997,241 L343.341,241 L343.341,236.016 C343.341,234.539 344.208,233.641 345.552,233.641 C346.895,233.641 347.536,234.359 347.536,235.875 L347.536,241 L348.88,241 L348.88,235.547 C348.88,233.547 347.825,232.43 345.934,232.43 C344.645,232.43 343.825,232.977 343.403,233.906 L343.278,233.906 L343.278,232.578 L341.997,232.578 L341.997,241 Z" id="Shape" fill="#000000" fill-rule="nonzero"></path>
            <path d="M96,221.36 C96,218.784 96,217.496 96.5014,216.512 C96.9424,215.646 97.6461,214.942 98.5116,214.501 C99.4956,214 100.784,214 103.36,214 L270.64,214 C273.216,214 274.504,214 275.488,214.501 C276.354,214.942 277.058,215.646 277.499,216.512 C278,217.496 278,218.784 278,221.36 L278,248.64 C278,251.216 278,252.504 277.499,253.488 C277.058,254.354 276.354,255.058 275.488,255.499 C274.504,256 273.216,256 270.64,256 L103.36,256 C100.784,256 99.4956,256 98.5116,255.499 C97.6461,255.058 96.9424,254.354 96.5014,253.488 C96,252.504 96,251.216 96,248.64 L96,221.36 Z" id="Path" fill="#FCFCFE"></path>
            <path d="M166.187,234.883 C166.187,236.102 166.906,236.781 168.484,237.164 L169.929,237.516 C170.827,237.734 171.265,238.125 171.265,238.703 C171.265,239.477 170.452,240.016 169.32,240.016 C168.242,240.016 167.57,239.562 167.343,238.852 L165.96,238.852 C166.109,240.25 167.398,241.148 169.273,241.148 C171.187,241.148 172.648,240.109 172.648,238.602 C172.648,237.391 171.882,236.703 170.296,236.32 L168.999,236.008 C168.007,235.766 167.538,235.406 167.538,234.828 C167.538,234.078 168.32,233.57 169.32,233.57 C170.335,233.57 170.992,234.016 171.171,234.688 L172.499,234.688 C172.32,233.305 171.093,232.43 169.327,232.43 C167.538,232.43 166.187,233.484 166.187,234.883 Z M178.539,232.43 C177.39,232.43 176.382,233.016 175.843,233.984 L175.718,233.984 L175.718,232.578 L174.437,232.578 L174.437,243.812 L175.781,243.812 L175.781,239.734 L175.906,239.734 C176.367,240.625 177.336,241.148 178.539,241.148 C180.679,241.148 182.078,239.422 182.078,236.789 C182.078,234.141 180.687,232.43 178.539,232.43 Z M178.218,239.938 C176.703,239.938 175.742,238.719 175.742,236.789 C175.742,234.852 176.703,233.641 178.226,233.641 C179.765,233.641 180.687,234.82 180.687,236.789 C180.687,238.758 179.765,239.938 178.218,239.938 Z M186.211,241.148 C187.336,241.148 188.258,240.656 188.805,239.758 L188.93,239.758 L188.93,241 L190.211,241 L190.211,235.234 C190.211,233.484 189.062,232.43 187.008,232.43 C185.211,232.43 183.883,233.32 183.703,234.672 L185.062,234.672 C185.25,234.008 185.953,233.625 186.961,233.625 C188.219,233.625 188.867,234.195 188.867,235.234 L188.867,236 L186.438,236.148 C184.477,236.266 183.367,237.133 183.367,238.641 C183.367,240.18 184.578,241.148 186.211,241.148 Z M186.461,239.969 C185.484,239.969 184.758,239.469 184.758,238.609 C184.758,237.766 185.32,237.32 186.602,237.234 L188.867,237.086 L188.867,237.859 C188.867,239.062 187.844,239.969 186.461,239.969 Z M199.344,235.156 C199.11,233.656 197.86,232.43 195.813,232.43 C193.453,232.43 191.953,234.133 191.953,236.758 C191.953,239.438 193.461,241.148 195.821,241.148 C197.844,241.148 199.102,240.008 199.344,238.461 L197.985,238.461 C197.735,239.414 196.946,239.938 195.813,239.938 C194.313,239.938 193.344,238.703 193.344,236.758 C193.344,234.852 194.297,233.641 195.813,233.641 C197.024,233.641 197.766,234.32 197.985,235.156 L199.344,235.156 Z M206.587,238.82 C206.235,239.562 205.501,239.961 204.415,239.961 C202.985,239.961 202.055,238.906 201.985,237.242 L201.985,237.18 L208.04,237.18 L208.04,236.664 C208.04,234.047 206.657,232.43 204.383,232.43 C202.071,232.43 200.587,234.148 200.587,236.797 C200.587,239.461 202.048,241.148 204.383,241.148 C206.227,241.148 207.54,240.258 207.93,238.82 L206.587,238.82 Z M204.368,233.617 C205.704,233.617 206.594,234.602 206.626,236.094 L201.985,236.094 C202.087,234.602 203.024,233.617 204.368,233.617 Z" id="Shape" fill="#000000" fill-rule="nonzero"></path>
            <path d="M3,221.36 C3,218.784 3,217.496 3.50137,216.512 C3.94239,215.646 4.6461,214.942 5.51164,214.501 C6.49564,214 7.78376,214 10.36,214 L82.64,214 C85.2162,214 86.5044,214 87.4884,214.501 C88.3539,214.942 89.0576,215.646 89.4986,216.512 C90,217.496 90,218.784 90,221.36 L90,248.64 C90,251.216 90,252.504 89.4986,253.488 C89.0576,254.354 88.3539,255.058 87.4884,255.499 C86.5044,256 85.2162,256 82.64,256 L10.36,256 C7.78376,256 6.49564,256 5.51164,255.499 C4.6461,255.058 3.94239,254.354 3.50137,253.488 C3,252.504 3,251.216 3,248.64 L3,221.36 Z" id="Path" fill="#ADB3BC"></path>
            <path d="M37.1872,241 L38.5934,241 L38.5934,229.727 L37.195,229.727 L34.195,231.883 L34.195,233.367 L37.0622,231.289 L37.1872,231.289 L37.1872,241 Z M41.5703,232.906 L42.9297,232.906 C42.9297,231.57 43.8281,230.688 45.1797,230.688 C46.5078,230.688 47.3125,231.578 47.3125,232.773 C47.3125,233.766 46.8906,234.352 45.4531,235.906 L41.6406,240.031 L41.6406,241 L48.9375,241 L48.9375,239.734 L43.5938,239.734 L43.5938,239.609 L46.1562,236.961 C48.1875,234.859 48.75,233.922 48.75,232.625 C48.75,230.797 47.2422,229.461 45.2734,229.461 C43.1172,229.461 41.5703,230.898 41.5703,232.906 Z M53.3597,235.805 L54.7581,235.805 C56.3441,235.805 57.3206,236.617 57.3206,237.922 C57.3206,239.188 56.2659,240.039 54.7816,240.039 C53.3284,240.039 52.3128,239.281 52.1878,238.094 L50.8284,238.094 C50.93,240.008 52.5081,241.266 54.7972,241.266 C57.0394,241.266 58.7659,239.852 58.7659,237.961 C58.7659,236.391 57.7972,235.398 56.3363,235.164 L56.3363,235.039 C57.4925,234.703 58.3363,233.805 58.3441,232.445 C58.3519,230.867 57.0706,229.461 54.8441,229.461 C52.5628,229.461 51.1644,230.812 51.0238,232.648 L52.3909,232.648 C52.5081,231.383 53.3909,230.688 54.7503,230.688 C56.1097,230.688 56.9144,231.547 56.9144,232.602 C56.9144,233.773 55.9925,234.602 54.6956,234.602 L53.3597,234.602 L53.3597,235.805 Z" id="Shape" fill="#000000" fill-rule="nonzero"></path>
            <path d="M330,167.36 C330,164.784 330,163.496 330.501,162.512 C330.942,161.646 331.646,160.942 332.512,160.501 C333.496,160 334.784,160 337.36,160 L364.64,160 C367.216,160 368.504,160 369.488,160.501 C370.354,160.942 371.058,161.646 371.499,162.512 C372,163.496 372,164.784 372,167.36 L372,194.64 C372,197.216 372,198.504 371.499,199.488 C371.058,200.354 370.354,201.058 369.488,201.499 C368.504,202 367.216,202 364.64,202 L337.36,202 C334.784,202 333.496,202 332.512,201.499 C331.646,201.058 330.942,200.354 330.501,199.488 C330,198.504 330,197.216 330,194.64 L330,167.36 Z" id="Path" fill="#ADB3BC"></path>
            <path d="M343.213,176.778 C343.198,176.792 343.169,176.82 343.136,176.852 C343.113,176.875 343.094,176.894 343.056,176.933 L340.912,179.076 C340.856,179.134 340.817,179.174 340.727,179.265 C340.676,179.315 340.639,179.354 340.559,179.439 C340.411,179.582 340.254,179.754 340.108,179.935 C339.969,180.081 339.859,180.252 339.782,180.438 C339.623,180.922 339.623,181.393 339.764,181.83 L339.783,181.88 C339.861,182.065 339.971,182.234 340.108,182.379 C340.254,182.559 340.411,182.731 340.576,182.893 C340.639,182.961 340.676,182.999 340.727,183.05 L340.912,183.236 L342.866,185.193 C342.958,185.284 343.003,185.329 343.055,185.378 C343.11,185.437 343.168,185.494 343.227,185.549 C343.237,185.559 345.727,188.048 345.727,188.048 C345.804,188.124 345.866,188.185 346.006,188.32 C346.021,188.334 346.043,188.357 346.05,188.364 C346.086,188.402 346.107,188.424 346.121,188.438 C346.411,188.729 346.745,188.973 347.11,189.162 C347.485,189.348 347.874,189.477 348.276,189.547 C348.655,189.609 349.031,189.643 349.408,189.648 C349.473,189.649 349.527,189.65 349.647,189.651 C349.763,189.652 349.814,189.653 349.877,189.654 L357.297,189.654 C357.374,189.653 357.426,189.652 357.543,189.651 C357.664,189.65 357.719,189.649 357.788,189.648 C358.166,189.641 358.545,189.607 358.92,189.545 C359.33,189.476 359.725,189.345 360.094,189.158 C360.465,188.969 360.805,188.723 361.098,188.427 C361.391,188.134 361.636,187.796 361.826,187.427 C362.013,187.053 362.141,186.66 362.21,186.254 C362.273,185.875 362.307,185.495 362.311,185.113 C362.314,185.035 362.315,184.96 362.318,184.794 C362.319,184.715 362.319,184.68 362.32,184.638 L362.32,177.648 C362.319,177.594 362.319,177.559 362.318,177.482 L362.317,177.401 C362.315,177.3 362.313,177.224 362.31,177.148 C362.306,176.789 362.274,176.413 362.215,176.042 C362.142,175.63 362.014,175.241 361.833,174.875 C361.642,174.502 361.398,174.168 361.107,173.877 C360.816,173.584 360.479,173.338 360.11,173.15 C359.743,172.967 359.356,172.838 358.956,172.767 C358.572,172.706 358.195,172.674 357.818,172.67 C357.693,172.664 357.583,172.663 357.338,172.663 C357.258,172.662 357.165,172.661 357.059,172.661 C356.98,172.66 356.917,172.66 356.775,172.66 L350.453,172.66 C350.169,172.66 350.041,172.661 349.879,172.663 C349.645,172.663 349.534,172.664 349.392,172.67 C349.033,172.674 348.657,172.706 348.285,172.766 C347.874,172.838 347.485,172.966 347.12,173.148 C346.745,173.342 346.411,173.586 346.121,173.877 C346.107,173.891 346.086,173.912 346.052,173.949 C346.043,173.958 346.006,173.995 346.006,173.995 C345.866,174.13 345.804,174.19 345.727,174.267 L345.406,174.588 L343.272,176.726 C343.253,176.741 343.233,176.759 343.213,176.778 Z M356.775,173.919 C356.915,173.919 356.977,173.919 357.054,173.919 C357.154,173.92 357.243,173.921 357.328,173.922 C357.566,173.922 357.665,173.923 357.785,173.928 C358.119,173.932 358.435,173.959 358.747,174.009 C359.016,174.057 359.288,174.147 359.543,174.274 C359.789,174.4 360.017,174.566 360.215,174.765 C360.415,174.965 360.581,175.193 360.709,175.443 C360.833,175.693 360.924,175.967 360.973,176.25 C361.021,176.551 361.048,176.866 361.052,177.181 C361.055,177.262 361.056,177.328 361.058,177.42 L361.059,177.498 C361.06,177.579 361.061,177.615 361.061,177.661 L361.061,184.625 C361.061,184.659 361.06,184.696 361.059,184.778 C361.057,184.933 361.056,185 361.052,185.082 C361.049,185.417 361.021,185.733 360.969,186.046 C360.921,186.326 360.831,186.601 360.703,186.859 C360.576,187.106 360.407,187.337 360.206,187.539 C360.006,187.74 359.776,187.908 359.524,188.036 C359.268,188.166 358.995,188.256 358.712,188.304 C358.401,188.355 358.083,188.384 357.765,188.389 C357.699,188.391 357.648,188.391 357.53,188.392 C357.409,188.394 357.355,188.394 357.285,188.396 L349.889,188.396 C349.833,188.394 349.78,188.394 349.659,188.392 C349.544,188.391 349.493,188.391 349.43,188.389 C349.111,188.385 348.797,188.357 348.486,188.306 C348.211,188.258 347.937,188.168 347.68,188.04 C347.439,187.915 347.21,187.747 347.011,187.548 L346.962,187.496 C346.913,187.445 346.892,187.423 346.868,187.402 C346.742,187.281 346.685,187.225 346.618,187.157 L344.122,184.662 C344.099,184.641 344.085,184.628 344.076,184.62 C344.031,184.577 343.994,184.539 343.959,184.502 C343.887,184.433 343.847,184.394 343.757,184.303 L341.803,182.346 L341.617,182.16 C341.578,182.121 341.547,182.089 341.476,182.013 C341.321,181.86 341.191,181.717 341.069,181.567 L341.031,181.524 C340.999,181.491 340.973,181.454 340.953,181.413 C340.905,181.245 340.905,181.067 340.954,180.899 C340.973,180.86 340.998,180.825 341.028,180.794 L341.071,180.745 C341.191,180.596 341.32,180.455 341.457,180.321 C341.547,180.226 341.578,180.193 341.617,180.155 C341.715,180.056 341.759,180.012 341.814,179.954 L343.757,178.012 L343.946,177.823 C343.983,177.785 343.999,177.769 344.02,177.749 L344.061,177.712 L344.061,177.712 L344.061,177.711 C344.092,177.684 344.108,177.669 344.125,177.653 L346.297,175.478 L346.618,175.157 C346.685,175.089 346.742,175.034 346.868,174.913 C346.892,174.891 346.913,174.869 346.96,174.82 L347.011,174.767 C347.21,174.567 347.439,174.4 347.689,174.27 C347.937,174.147 348.211,174.057 348.494,174.007 C348.795,173.959 349.11,173.932 349.424,173.928 C349.562,173.923 349.662,173.922 349.889,173.922 C350.052,173.92 350.176,173.919 350.453,173.919 L356.775,173.919 Z M350.813,184.489 C350.762,184.539 350.701,184.579 350.633,184.608 C350.421,184.695 350.177,184.646 350.015,184.484 C349.795,184.263 349.795,183.905 350.015,183.684 C350.047,183.652 350.082,183.624 350.12,183.601 L352.564,181.155 L350.015,178.608 L350.023,178.6 C349.973,178.549 349.932,178.489 349.904,178.42 C349.816,178.208 349.865,177.964 350.028,177.802 C350.249,177.582 350.606,177.582 350.827,177.802 C350.859,177.835 350.887,177.87 350.91,177.907 L353.362,180.356 L355.838,177.878 C355.856,177.851 355.877,177.826 355.9,177.802 C356.061,177.641 356.304,177.592 356.515,177.679 C356.727,177.766 356.864,177.972 356.864,178.201 C356.864,178.353 356.803,178.495 356.7,178.599 L356.706,178.605 L354.161,181.153 L356.645,183.633 C356.667,183.649 356.689,183.667 356.709,183.687 C356.871,183.849 356.92,184.092 356.832,184.303 C356.745,184.514 356.539,184.652 356.311,184.652 C356.159,184.652 356.016,184.59 355.912,184.487 L355.906,184.493 L353.362,181.952 L350.821,184.496 L350.813,184.489 Z" id="Shape" fill="#000000"></path>
            <rect id="Rectangle" fill="#FCFCFE" fill-rule="nonzero" x="3" y="160" width="42" height="42" rx="4.6"></rect>
            <path d="M32.8002,182.664 L28.6031,182.664 L28.6031,186.633 C28.6031,186.713 28.6031,186.786 28.6031,186.863 C28.6031,186.929 28.6031,186.993 28.6005,187.059 C28.5986,187.202 28.5863,187.345 28.5635,187.486 C28.5387,187.626 28.4938,187.762 28.4302,187.889 C28.3651,188.016 28.28,188.132 28.1782,188.232 C28.076,188.332 27.9593,188.417 27.832,188.482 C27.7031,188.545 27.5661,188.59 27.4251,188.615 C27.2836,188.638 27.1407,188.65 26.9975,188.652 C26.9309,188.652 26.8662,188.655 26.8009,188.655 L21.4018,188.655 C21.3351,188.655 21.2708,188.652 21.2051,188.652 C21.0619,188.65 20.9191,188.638 20.7776,188.615 C20.6366,188.59 20.4998,188.545 20.371,188.482 C20.2437,188.417 20.127,188.332 20.0248,188.232 C19.9229,188.132 19.8379,188.016 19.7728,187.889 C19.7092,187.762 19.6643,187.626 19.6395,187.486 C19.6166,187.345 19.6041,187.202 19.6022,187.059 C19.6022,186.993 19.5995,186.929 19.5995,186.863 C19.5995,186.786 19.5995,186.713 19.5995,186.633 L19.5995,182.664 L15.3361,182.664 C14.9049,182.664 14.3517,181.734 14.8696,181.217 C15.3098,180.781 22.2289,173.882 23.6769,172.446 C23.7833,172.315 23.9336,172.227 24.0998,172.199 L24.1112,172.199 C24.2549,172.207 24.3885,172.276 24.4777,172.389 C25.9257,173.826 32.8685,180.781 33.3091,181.217 C33.8273,181.734 33.3934,182.664 32.8002,182.664 Z" id="Path" fill="#000000" fill-rule="nonzero"></path>
            <rect id="Rectangle" fill="#FCFCFE" fill-rule="nonzero" x="285" y="160" width="32" height="42" rx="4.6"></rect>
            <polygon id="Path" fill="#000000" fill-rule="nonzero" points="308.811 189 308.811 173.147 306.515 173.147 301.088 186.374 300.912 186.374 295.485 173.147 293.189 173.147 293.189 189 295.034 189 295.034 176.893 295.166 176.893 300.165 189 301.835 189 306.834 176.893 306.966 176.893 306.966 189"></polygon>
            <rect id="Rectangle" fill="#FCFCFE" fill-rule="nonzero" x="247" y="160" width="32" height="42" rx="4.6"></rect>
            <polygon id="Path" fill="#000000" fill-rule="nonzero" points="259.127 189 259.127 176.706 259.303 176.706 267.906 189 269.828 189 269.828 173.147 267.873 173.147 267.873 185.484 267.697 185.484 259.094 173.147 257.172 173.147 257.172 189"></polygon>
            <rect id="Rectangle" fill="#FCFCFE" fill-rule="nonzero" x="209" y="160" width="32" height="42" rx="4.6"></rect>
            <path d="M226.313,189 C229.686,189 231.685,187.341 231.685,184.551 C231.685,182.452 230.312,180.969 228.148,180.694 L228.148,180.519 C229.675,180.244 230.883,178.75 230.883,177.102 C230.883,174.674 229.104,173.147 226.192,173.147 L220.128,173.147 L220.128,189 L226.313,189 Z M222.105,174.894 L225.775,174.894 C227.741,174.894 228.884,175.827 228.884,177.442 C228.884,179.123 227.664,179.98 225.269,179.98 L222.105,179.98 L222.105,174.894 Z M222.105,187.253 L222.105,181.683 L225.83,181.683 C228.356,181.683 229.653,182.617 229.653,184.452 C229.653,186.286 228.4,187.253 226.016,187.253 L222.105,187.253 Z" id="Shape" fill="#000000" fill-rule="nonzero"></path>
            <rect id="Rectangle" fill="#FCFCFE" fill-rule="nonzero" x="172" y="160" width="32" height="42" rx="4.6"></rect>
            <polygon id="Path" fill="#000000" fill-rule="nonzero" points="188.978 189 194.823 173.147 192.746 173.147 188.088 186.44 187.912 186.44 183.254 173.147 181.177 173.147 187.022 189"></polygon>
            <rect id="Rectangle" fill="#FCFCFE" fill-rule="nonzero" x="134" y="160" width="32" height="42" rx="4.6"></rect>
            <path d="M150.852,189.374 C154.224,189.374 156.729,187.495 157.257,184.583 L155.246,184.583 C154.741,186.418 153.06,187.55 150.852,187.55 C147.797,187.55 145.886,185.056 145.886,181.079 C145.886,177.102 147.797,174.597 150.841,174.597 C153.027,174.597 154.719,175.882 155.246,177.926 L157.257,177.926 C156.784,174.872 154.18,172.773 150.841,172.773 C146.534,172.773 143.853,175.959 143.853,181.079 C143.853,186.188 146.545,189.374 150.852,189.374 Z" id="Path" fill="#000000" fill-rule="nonzero"></path>
            <rect id="Rectangle" fill="#FCFCFE" fill-rule="nonzero" x="97" y="160" width="32" height="42" rx="4.6"></rect>
            <polygon id="Path" fill="#000000" fill-rule="nonzero" points="106.353 189 108.594 189 112.824 182.749 113 182.749 117.153 189 119.526 189 114.154 181.112 119.647 173.147 117.395 173.147 113.154 179.453 112.978 179.453 108.803 173.147 106.419 173.147 111.781 181.024"></polygon>
            <rect id="Rectangle" fill="#FCFCFE" fill-rule="nonzero" x="59" y="160" width="32" height="42" rx="4.6"></rect>
            <polygon id="Path" fill="#000000" fill-rule="nonzero" points="69.6333 189 81.3557 189 81.3557 187.22 72.2371 187.22 72.2371 187.044 81.1689 174.553 81.1689 173.147 69.9409 173.147 69.9409 174.927 78.6091 174.927 78.6091 175.102 69.6333 187.594"></polygon>
            <rect id="Rectangle" fill="#FCFCFE" fill-rule="nonzero" x="322" y="106" width="32" height="42" rx="4.6"></rect>
            <polygon id="Path" fill="#000000" fill-rule="nonzero" points="343.751 133.22 336.105 133.22 336.105 119.147 334.127 119.147 334.127 135 343.751 135"></polygon>
            <rect id="Rectangle" fill="#FCFCFE" fill-rule="nonzero" x="284" y="106" width="32" height="42" rx="4.6"></rect>
            <polygon id="Path" fill="#000000" fill-rule="nonzero" points="297.083 135 297.083 129.463 298.984 127.365 304.708 135 307.268 135 300.346 125.991 306.685 119.147 304.202 119.147 297.259 126.848 297.083 126.848 297.083 119.147 295.106 119.147 295.106 135"></polygon>
            <rect id="Rectangle" fill="#FCFCFE" fill-rule="nonzero" x="247" y="106" width="32" height="42" rx="4.6"></rect>
            <path d="M258.391,131.298 C258.391,133.726 260.259,135.374 262.918,135.374 C265.785,135.374 267.532,133.605 267.532,130.583 L267.532,119.147 L265.554,119.147 L265.554,130.573 C265.554,132.517 264.599,133.55 262.907,133.55 C261.413,133.55 260.402,132.627 260.358,131.298 L258.391,131.298 Z" id="Path" fill="#000000" fill-rule="nonzero"></path>
            <rect id="Rectangle" fill="#FCFCFE" fill-rule="nonzero" x="209" y="106" width="32" height="42" rx="4.6"></rect>
            <polygon id="Path" fill="#000000" fill-rule="nonzero" points="231.828 135 231.828 119.147 229.851 119.147 229.851 126.002 221.149 126.002 221.149 119.147 219.172 119.147 219.172 135 221.149 135 221.149 127.782 229.851 127.782 229.851 135"></polygon>
            <rect id="Rectangle" fill="#FCFCFE" fill-rule="nonzero" x="172" y="106" width="32" height="42" rx="4.6"></rect>
            <path d="M195.421,128.87 L195.421,126.936 L188.994,126.936 L188.994,128.672 L193.455,128.672 L193.455,129.056 C193.455,131.737 191.532,133.55 188.698,133.55 C185.512,133.55 183.534,131.067 183.534,127.068 C183.534,123.124 185.545,120.597 188.687,120.597 C191.038,120.597 192.631,121.729 193.312,123.871 L195.323,123.871 C194.751,120.729 192.202,118.773 188.687,118.773 C184.347,118.773 181.502,122.058 181.502,127.068 C181.502,132.144 184.303,135.374 188.687,135.374 C192.741,135.374 195.421,132.781 195.421,128.87 Z" id="Path" fill="#000000" fill-rule="nonzero"></path>
            <rect id="Rectangle" fill="#FCFCFE" fill-rule="nonzero" x="134" y="106" width="32" height="42" rx="4.6"></rect>
            <polygon id="Path" fill="#000000" fill-rule="nonzero" points="148.061 135 148.061 128.134 155.081 128.134 155.081 126.376 148.061 126.376 148.061 120.927 155.708 120.927 155.708 119.147 146.083 119.147 146.083 135"></polygon>
            <rect id="Rectangle" fill="#FCFCFE" fill-rule="nonzero" x="97" y="106" width="32" height="42" rx="4.6"></rect>
            <path d="M107.348,119.147 L107.348,135 L112.786,135 C117.499,135 120.268,132.067 120.268,127.068 C120.268,122.08 117.488,119.147 112.786,119.147 L107.348,119.147 Z M109.325,120.927 L112.654,120.927 C116.17,120.927 118.246,123.212 118.246,127.09 C118.246,130.957 116.192,133.22 112.654,133.22 L109.325,133.22 L109.325,120.927 Z" id="Shape" fill="#000000" fill-rule="nonzero"></path>
            <rect id="Rectangle" fill="#FCFCFE" fill-rule="nonzero" x="59" y="106" width="32" height="42" rx="4.6"></rect>
            <path d="M69.5894,130.858 C69.7981,133.594 72.1162,135.374 75.478,135.374 C79.1035,135.374 81.3997,133.517 81.3997,130.605 C81.3997,128.276 80.0813,127.002 76.7964,126.178 L75.1375,125.739 C72.9512,125.178 72.0833,124.464 72.0833,123.223 C72.0833,121.619 73.4785,120.564 75.5879,120.564 C77.5654,120.564 78.9058,121.531 79.1804,123.157 L81.1689,123.157 C81.0042,120.597 78.719,118.773 75.6538,118.773 C72.303,118.773 70.0508,120.597 70.0508,123.289 C70.0508,125.541 71.2922,126.837 74.1597,127.562 L76.1921,128.09 C78.3784,128.639 79.3672,129.496 79.3672,130.847 C79.3672,132.418 77.7961,133.572 75.6648,133.572 C73.4126,133.572 71.8306,132.517 71.5889,130.858 L69.5894,130.858 Z" id="Path" fill="#000000" fill-rule="nonzero"></path>
            <rect id="Rectangle" fill="#FCFCFE" fill-rule="nonzero" x="22" y="106" width="32" height="42" rx="4.6"></rect>
            <path d="M42.7461,135 L44.8225,135 L38.9778,119.147 L37.0222,119.147 L31.1775,135 L33.2539,135 L34.8469,130.463 L41.1531,130.463 L42.7461,135 Z M37.9121,121.707 L38.0879,121.707 L40.5708,128.782 L35.4292,128.782 L37.9121,121.707 Z" id="Shape" fill="#000000" fill-rule="nonzero"></path>
            <rect id="Rectangle" fill="#FCFCFE" fill-rule="nonzero" x="340" y="52" width="32" height="42" rx="4.6"></rect>
            <path d="M351.369,65.1467 L351.369,81 L353.347,81 L353.347,75.342 L357.335,75.342 C360.312,75.342 362.433,73.2437 362.433,70.2773 C362.433,67.2561 360.356,65.1467 357.357,65.1467 L351.369,65.1467 Z M353.347,66.9045 L356.841,66.9045 C359.137,66.9045 360.4,68.1021 360.4,70.2773 C360.4,72.3757 359.093,73.5842 356.841,73.5842 L353.347,73.5842 L353.347,66.9045 Z" id="Shape" fill="#000000" fill-rule="nonzero"></path>
            <rect id="Rectangle" fill="#FCFCFE" fill-rule="nonzero" x="303" y="52" width="32" height="42" rx="4.6"></rect>
            <path d="M319,64.7732 C314.518,64.7732 311.727,67.9702 311.727,73.0679 C311.727,78.1436 314.452,81.3735 319,81.3735 C323.526,81.3735 326.273,78.1326 326.273,73.0679 C326.273,67.9812 323.504,64.7732 319,64.7732 Z M319,66.5969 C322.241,66.5969 324.24,69.1018 324.24,73.0679 C324.24,77.001 322.252,79.5498 319,79.5498 C315.704,79.5498 313.76,77.001 313.76,73.0679 C313.76,69.1018 315.77,66.5969 319,66.5969 Z" id="Shape" fill="#000000" fill-rule="nonzero"></path>
            <rect id="Rectangle" fill="#FCFCFE" fill-rule="nonzero" x="265" y="52" width="32" height="42" rx="4.6"></rect>
            <polygon id="Path" fill="#000000" fill-rule="nonzero" points="282.489 81 282.489 65.1467 280.511 65.1467 280.511 81"></polygon>
            <rect id="Rectangle" fill="#FCFCFE" fill-rule="nonzero" x="228" y="52" width="32" height="42" rx="4.6"></rect>
            <path d="M240.182,65.1467 L238.205,65.1467 L238.205,75.5508 C238.205,78.9346 240.567,81.3735 244.5,81.3735 C248.433,81.3735 250.795,78.9346 250.795,75.5508 L250.795,65.1467 L248.818,65.1467 L248.818,75.4189 C248.818,77.814 247.247,79.5498 244.5,79.5498 C241.753,79.5498 240.182,77.814 240.182,75.4189 L240.182,65.1467 Z" id="Path" fill="#000000" fill-rule="nonzero"></path>
            <rect id="Rectangle" fill="#FCFCFE" fill-rule="nonzero" x="190" y="52" width="32" height="42" rx="4.6"></rect>
            <polygon id="Path" fill="#000000" fill-rule="nonzero" points="207.489 81 207.489 74.1775 213.114 65.1467 210.862 65.1467 206.588 72.189 206.412 72.189 202.138 65.1467 199.886 65.1467 205.511 74.1775 205.511 81"></polygon>
            <rect id="Rectangle" fill="#FCFCFE" fill-rule="nonzero" x="153" y="52" width="32" height="42" rx="4.6"></rect>
            <polygon id="Path" fill="#000000" fill-rule="nonzero" points="170.489 81 170.489 66.9265 175.597 66.9265 175.597 65.1467 163.403 65.1467 163.403 66.9265 168.511 66.9265 168.511 81"></polygon>
            <rect id="Rectangle" fill="#FCFCFE" fill-rule="nonzero" x="115" y="52" width="32" height="42" rx="4.6"></rect>
            <path d="M128.149,74.7268 L132.049,74.7268 L135.444,81 L137.762,81 L134.093,74.4192 C136.081,73.793 137.279,72.0791 137.279,69.8708 C137.279,67.0144 135.279,65.1467 132.225,65.1467 L126.172,65.1467 L126.172,81 L128.149,81 L128.149,74.7268 Z M128.149,66.9045 L131.961,66.9045 C134.005,66.9045 135.235,68.0361 135.235,69.9368 C135.235,71.8813 134.082,72.969 132.049,72.969 L128.149,72.969 L128.149,66.9045 Z" id="Shape" fill="#000000" fill-rule="nonzero"></path>
            <rect id="Rectangle" fill="#FCFCFE" fill-rule="nonzero" x="78" y="52" width="32" height="42" rx="4.6"></rect>
            <polygon id="Path" fill="#000000" fill-rule="nonzero" points="99.1416 79.2202 91.2974 79.2202 91.2974 73.771 98.7351 73.771 98.7351 72.0132 91.2974 72.0132 91.2974 66.9265 99.1416 66.9265 99.1416 65.1467 89.3198 65.1467 89.3198 81 99.1416 81"></polygon>
            <rect id="Rectangle" fill="#FCFCFE" fill-rule="nonzero" x="40" y="52" width="32" height="42" rx="4.6"></rect>
            <polygon id="Path" fill="#000000" fill-rule="nonzero" points="55.9341 68.4866 56.0659 68.4866 59.7134 81 61.5811 81 65.8987 65.1467 63.8333 65.1467 60.6802 78.0337 60.5483 78.0337 56.9998 65.1467 55.0002 65.1467 51.4517 78.0337 51.3198 78.0337 48.1667 65.1467 46.1013 65.1467 50.4189 81 52.2866 81"></polygon>
            <rect id="Rectangle" fill="#FCFCFE" fill-rule="nonzero" x="3" y="52" width="32" height="42" rx="4.6"></rect>
            <path d="M19.011,81.3735 C20.0327,81.3735 20.9995,81.2087 21.8455,80.8901 L23.2407,82.7908 L25.46,82.7908 L23.4495,80.0002 C25.2512,78.7039 26.262,76.2319 26.262,73.0789 C26.262,67.9702 23.4714,64.7732 19.011,64.7732 C14.5286,64.7732 11.7271,67.9592 11.7271,73.0789 C11.7271,78.2205 14.4956,81.3735 19.011,81.3735 Z M19.022,79.5498 C15.77,79.5498 13.7595,77.0779 13.7595,73.0789 C13.7595,69.0908 15.781,66.5969 19.011,66.5969 C22.219,66.5969 24.2295,69.1018 24.2295,73.0789 C24.2295,75.4958 23.5374,77.3855 22.2959,78.3743 L20.8567,76.4626 L18.6155,76.4626 L20.7139,79.3081 C20.1646,79.4729 19.6042,79.5498 19.022,79.5498 Z" id="Shape" fill="#000000" fill-rule="nonzero"></path>
            <rect id="Rectangle" fill="#D1D5DB" fill-rule="nonzero" x="0" y="0" width="375" height="44"></rect>
            <polygon id="Path" fill="#000000" fill-rule="nonzero" points="63.291 29 63.291 16.3174 61.709 16.3174 61.709 29"></polygon>
            <path d="M182.745,18.9893 L182.851,18.9893 L185.769,29 L187.263,29 L190.717,16.3174 L189.064,16.3174 L186.542,26.627 L186.437,26.627 L183.598,16.3174 L181.998,16.3174 L179.159,26.627 L179.054,26.627 L176.531,16.3174 L174.879,16.3174 L178.333,29 L179.827,29 L182.745,18.9893 Z M198.328,26.5479 C197.933,27.3828 197.106,27.8311 195.885,27.8311 C194.276,27.8311 193.23,26.6445 193.151,24.7725 L193.151,24.7021 L199.963,24.7021 L199.963,24.1221 C199.963,21.1777 198.407,19.3584 195.85,19.3584 C193.248,19.3584 191.578,21.292 191.578,24.2715 C191.578,27.2686 193.222,29.167 195.85,29.167 C197.924,29.167 199.4,28.165 199.84,26.5479 L198.328,26.5479 Z M195.832,20.6943 C197.335,20.6943 198.337,21.8018 198.372,23.4805 L193.151,23.4805 C193.266,21.8018 194.32,20.6943 195.832,20.6943 Z" id="Shape" fill="#000000" fill-rule="nonzero"></path>
            <path d="M292.839,29 L292.839,17.7412 L296.926,17.7412 L296.926,16.3174 L287.17,16.3174 L287.17,17.7412 L291.257,17.7412 L291.257,29 L292.839,29 Z M299.264,29 L300.775,29 L300.775,23.3926 C300.775,21.793 301.707,20.7207 303.403,20.7207 C304.836,20.7207 305.592,21.5557 305.592,23.2344 L305.592,29 L307.104,29 L307.104,22.8652 C307.104,20.6416 305.838,19.3584 303.834,19.3584 C302.384,19.3584 301.391,19.9736 300.916,21.0195 L300.775,21.0195 L300.775,15.7637 L299.264,15.7637 L299.264,29 Z M312.5,29.167 C313.766,29.167 314.803,28.6133 315.418,27.6025 L315.559,27.6025 L315.559,29 L317,29 L317,22.5137 C317,20.5449 315.708,19.3584 313.396,19.3584 C311.375,19.3584 309.881,20.3604 309.679,21.8809 L311.208,21.8809 C311.419,21.1338 312.21,20.7031 313.344,20.7031 C314.759,20.7031 315.488,21.3447 315.488,22.5137 L315.488,23.375 L312.755,23.542 C310.549,23.6738 309.301,24.6494 309.301,26.3457 C309.301,28.0771 310.663,29.167 312.5,29.167 Z M312.781,27.8398 C311.683,27.8398 310.865,27.2773 310.865,26.3105 C310.865,25.3613 311.498,24.8604 312.939,24.7637 L315.488,24.5967 L315.488,25.4668 C315.488,26.8203 314.337,27.8398 312.781,27.8398 Z M319.795,29 L321.307,29 L321.307,23.3926 C321.307,21.7314 322.282,20.7207 323.794,20.7207 C325.306,20.7207 326.026,21.5293 326.026,23.2344 L326.026,29 L327.538,29 L327.538,22.8652 C327.538,20.6152 326.352,19.3584 324.225,19.3584 C322.774,19.3584 321.852,19.9736 321.377,21.0195 L321.236,21.0195 L321.236,19.5254 L319.795,19.5254 L319.795,29 Z M332.047,23.665 L331.906,23.665 L331.906,15.7637 L330.395,15.7637 L330.395,29 L331.906,29 L331.906,25.4053 L332.812,24.5615 L336.362,29 L338.287,29 L333.937,23.5859 L338.015,19.5254 L336.16,19.5254 L332.047,23.665 Z" id="Shape" fill="#000000" fill-rule="nonzero"></path>
            <rect id="Rectangle" fill="#BDBEC3" fill-rule="nonzero" x="250" y="9" width="1" height="26"></rect>
            <rect id="Rectangle" fill="#BDBEC3" fill-rule="nonzero" x="125" y="9" width="1" height="26"></rect>
        </g>
    </g>
</svg>