<svg width="375" height="44" viewBox="0 0 375 44" fill="none" xmlns="http://www.w3.org/2000/svg">
<rect opacity="0.35" x="336.5" y="17.834" width="21" height="10.3333" rx="2.16667" stroke="white"/>
<path opacity="0.4" d="M359 21V25C359.805 24.6612 360.328 23.8731 360.328 23C360.328 22.1269 359.805 21.3388 359 21" fill="white"/>
<rect x="338" y="19.334" width="18" height="7.33333" rx="1.33333" fill="white"/>
<path fill-rule="evenodd" clip-rule="evenodd" d="M323.33 19.6074C325.546 19.6075 327.678 20.4589 329.283 21.9857C329.404 22.1036 329.598 22.1021 329.717 21.9824L330.873 20.8157C330.933 20.755 330.967 20.6728 330.966 20.5872C330.966 20.5016 330.931 20.4198 330.87 20.3597C326.655 16.3202 320.005 16.3202 315.79 20.3597C315.729 20.4197 315.694 20.5015 315.694 20.5871C315.693 20.6727 315.727 20.755 315.787 20.8157L316.943 21.9824C317.062 22.1023 317.256 22.1038 317.377 21.9857C318.983 20.4588 321.114 19.6074 323.33 19.6074ZM323.33 23.4031C324.548 23.403 325.722 23.8555 326.624 24.6727C326.747 24.7887 326.939 24.7862 327.058 24.6671L328.212 23.5004C328.273 23.4392 328.307 23.3562 328.306 23.2699C328.305 23.1837 328.27 23.1014 328.208 23.0414C325.46 20.485 321.204 20.485 318.455 23.0414C318.393 23.1014 318.358 23.1837 318.357 23.27C318.356 23.3563 318.39 23.4393 318.451 23.5004L319.605 24.6671C319.724 24.7862 319.917 24.7887 320.039 24.6727C320.941 23.8561 322.114 23.4036 323.33 23.4031ZM325.643 25.9569C325.645 26.0434 325.611 26.1268 325.549 26.1874L323.552 28.2031C323.494 28.2623 323.414 28.2957 323.33 28.2957C323.247 28.2957 323.167 28.2623 323.109 28.2031L321.111 26.1874C321.049 26.1268 321.015 26.0433 321.017 25.9568C321.019 25.8703 321.057 25.7884 321.121 25.7304C322.396 24.6515 324.265 24.6515 325.54 25.7304C325.604 25.7884 325.642 25.8704 325.643 25.9569Z" fill="white"/>
<path fill-rule="evenodd" clip-rule="evenodd" d="M309.667 17.666H308.667C308.114 17.666 307.667 18.1137 307.667 18.666V27.3327C307.667 27.885 308.114 28.3327 308.667 28.3327H309.667C310.219 28.3327 310.667 27.885 310.667 27.3327V18.666C310.667 18.1137 310.219 17.666 309.667 17.666ZM304 19.9993H305C305.552 19.9993 306 20.4471 306 20.9993V27.3327C306 27.885 305.552 28.3327 305 28.3327H304C303.448 28.3327 303 27.885 303 27.3327V20.9993C303 20.4471 303.448 19.9993 304 19.9993ZM300.333 22.3327H299.333C298.781 22.3327 298.333 22.7804 298.333 23.3327V27.3327C298.333 27.885 298.781 28.3327 299.333 28.3327H300.333C300.886 28.3327 301.333 27.885 301.333 27.3327V23.3327C301.333 22.7804 300.886 22.3327 300.333 22.3327ZM295.667 24.3327H294.667C294.114 24.3327 293.667 24.7804 293.667 25.3327V27.3327C293.667 27.885 294.114 28.3327 294.667 28.3327H295.667C296.219 28.3327 296.667 27.885 296.667 27.3327V25.3327C296.667 24.7804 296.219 24.3327 295.667 24.3327Z" fill="white"/>
<path d="M35.5195 27.2637C37.9585 27.2637 39.6284 26.0039 39.6284 24.1655C39.6284 22.8032 38.7202 21.7339 37.3433 21.4775V21.353C38.4785 21.0674 39.1963 20.1665 39.1963 19.0239C39.1963 17.3613 37.6729 16.1675 35.5269 16.1675C33.3809 16.1675 31.8501 17.3613 31.8501 19.0239C31.8501 20.1592 32.5825 21.0747 33.7104 21.353V21.4775C32.3262 21.7632 31.4253 22.8325 31.4253 24.1729C31.4253 26.0039 33.0952 27.2637 35.5195 27.2637ZM35.5269 20.7964C34.4502 20.7964 33.7104 20.1519 33.7104 19.1997C33.7104 18.2476 34.4429 17.5884 35.5269 17.5884C36.6035 17.5884 37.3359 18.2476 37.3359 19.1997C37.3359 20.1445 36.5962 20.7964 35.5269 20.7964ZM35.5269 25.8208C34.2524 25.8208 33.3735 25.0811 33.3735 24.019C33.3735 22.9497 34.2524 22.21 35.5269 22.21C36.7939 22.21 37.6729 22.9497 37.6729 24.019C37.6729 25.0811 36.8013 25.8208 35.5269 25.8208ZM43.0488 20.1592C43.7446 20.1592 44.2207 19.6758 44.2207 19.0239C44.2207 18.3721 43.7446 17.8887 43.0488 17.8887C42.3604 17.8887 41.877 18.3721 41.877 19.0239C41.877 19.6758 42.3604 20.1592 43.0488 20.1592ZM43.0488 25.5352C43.7446 25.5352 44.2207 25.0444 44.2207 24.3999C44.2207 23.748 43.7446 23.2646 43.0488 23.2646C42.3604 23.2646 41.877 23.748 41.877 24.3999C41.877 25.0444 42.3604 25.5352 43.0488 25.5352ZM50.4316 27.2637C52.9585 27.2637 54.46 25.2202 54.46 21.7192C54.46 18.2109 52.9365 16.1675 50.4316 16.1675C47.9194 16.1675 46.396 18.2109 46.396 21.7046C46.396 25.2129 47.8975 27.2637 50.4316 27.2637ZM50.4316 25.7329C49.0913 25.7329 48.3076 24.3413 48.3076 21.7046C48.3076 19.0898 49.106 17.7056 50.4316 17.7056C51.7573 17.7056 52.5483 19.0825 52.5483 21.7046C52.5483 24.3486 51.772 25.7329 50.4316 25.7329ZM60.4658 27.2637C62.9048 27.2637 64.5747 26.0039 64.5747 24.1655C64.5747 22.8032 63.6665 21.7339 62.2896 21.4775V21.353C63.4248 21.0674 64.1426 20.1665 64.1426 19.0239C64.1426 17.3613 62.6191 16.1675 60.4731 16.1675C58.3271 16.1675 56.7964 17.3613 56.7964 19.0239C56.7964 20.1592 57.5288 21.0747 58.6567 21.353V21.4775C57.2725 21.7632 56.3716 22.8325 56.3716 24.1729C56.3716 26.0039 58.0415 27.2637 60.4658 27.2637ZM60.4731 20.7964C59.3965 20.7964 58.6567 20.1519 58.6567 19.1997C58.6567 18.2476 59.3892 17.5884 60.4731 17.5884C61.5498 17.5884 62.2822 18.2476 62.2822 19.1997C62.2822 20.1445 61.5425 20.7964 60.4731 20.7964ZM60.4731 25.8208C59.1987 25.8208 58.3198 25.0811 58.3198 24.019C58.3198 22.9497 59.1987 22.21 60.4731 22.21C61.7402 22.21 62.6191 22.9497 62.6191 24.019C62.6191 25.0811 61.7476 25.8208 60.4731 25.8208Z" fill="white"/>
</svg>
