<svg width="60" height="60" viewBox="0 0 60 60" fill="none" xmlns="http://www.w3.org/2000/svg">
<rect width="60" height="60" rx="30" fill="black" fill-opacity="0.4"/>
<path d="M24.481 38.4561H26.6445C27.8545 38.4561 28.5005 37.769 28.5005 36.7026V22.4907C28.5005 21.4346 27.8545 20.7476 26.6445 20.7476H24.481C23.271 20.7476 22.6147 21.4448 22.6147 22.4907V36.7026C22.6147 37.7588 23.271 38.4561 24.481 38.4561ZM32.8687 38.4561H35.0322C36.2422 38.4561 36.8984 37.7588 36.8984 36.7026V22.4907C36.8984 21.4448 36.2422 20.7476 35.0322 20.7476H32.8687C31.6689 20.7476 31.0127 21.4346 31.0127 22.4907V36.7026C31.0127 37.769 31.6689 38.4561 32.8687 38.4561Z" fill="white"/>
</svg>
