<svg width="48" height="48" viewBox="0 0 48 48" fill="none" xmlns="http://www.w3.org/2000/svg">
<rect width="48" height="48" fill="#EFEFEF"/>
<path fill-rule="evenodd" clip-rule="evenodd" d="M24 18.75C23.31 18.75 22.75 19.31 22.75 20V24.518L25.866 27.634C26.11 27.878 26.43 28 26.75 28C27.07 28 27.39 27.878 27.634 27.634C28.122 27.146 28.122 26.354 27.634 25.866L25.25 23.482V20C25.25 19.31 24.69 18.75 24 18.75ZM35 24C35 30.065 30.065 35 24 35C18.561 35 13.993 31.107 13.138 25.744C13.007 24.926 13.565 24.157 14.383 24.026C15.202 23.896 15.97 24.453 16.101 25.271C16.722 29.17 20.044 32 24 32C28.411 32 32 28.411 32 24C32 19.589 28.411 16 24 16C21.782 16 19.704 16.941 18.216 18.5H19C19.829 18.5 20.5 19.171 20.5 20C20.5 20.829 19.829 21.5 19 21.5H13V16C13 15.171 13.671 14.5 14.5 14.5C15.329 14.5 16 15.171 16 16V16.465C18.049 14.299 20.932 13 24 13C30.065 13 35 17.935 35 24Z" fill="#111111"/>
</svg>
