<svg width="24" height="24" viewBox="0 0 24 24" fill="none" xmlns="http://www.w3.org/2000/svg">
<path d="M11.1663 15.3334H6.99967V11.1667H11.1663V15.3334Z" fill="#111111"/>
<path fill-rule="evenodd" clip-rule="evenodd" d="M18.6663 5.33337H16.583V4.08337C16.583 3.39254 16.0238 2.83337 15.333 2.83337C14.6422 2.83337 14.083 3.39254 14.083 4.08337V5.33337H9.91634V4.08337C9.91634 3.39254 9.35717 2.83337 8.66634 2.83337C7.97551 2.83337 7.41634 3.39254 7.41634 4.08337V5.33337H5.33301C3.95801 5.33337 2.83301 6.45837 2.83301 7.83337V18.6667C2.83301 20.0417 3.95801 21.1667 5.33301 21.1667H18.6663C20.0413 21.1667 21.1663 20.0417 21.1663 18.6667V7.83337C21.1663 6.45837 20.0413 5.33337 18.6663 5.33337ZM5.33301 18.6667H18.6663V9.50004H5.33301V18.6667Z" fill="#111111"/>
</svg>
