<svg width="24" height="24" viewBox="0 0 24 24" fill="none" xmlns="http://www.w3.org/2000/svg">
<path fill-rule="evenodd" clip-rule="evenodd" d="M12 19C10.619 19 9.5 20.119 9.5 21.5C9.5 22.881 10.619 24 12 24C13.381 24 14.5 22.881 14.5 21.5C14.5 20.119 13.381 19 12 19ZM18.75 6.75C18.75 9.121 17.47 11.39 15.489 12.529C15.034 12.791 14.348 13.857 14.348 14.87C14.348 16.167 13.297 17.217 12 17.217C10.703 17.217 9.652 16.167 9.652 14.87C9.652 12.32 11.122 9.624 13.147 8.459C13.599 8.2 14.055 7.53 14.055 6.75C14.055 5.617 13.133 4.696 12 4.696C10.867 4.696 9.945 5.617 9.945 6.75C9.945 8.047 8.895 9.098 7.598 9.098C6.301 9.098 5.25 8.047 5.25 6.75C5.25 3.028 8.277 0 12 0C15.723 0 18.75 3.028 18.75 6.75Z" fill="#111111"/>
</svg>
