<svg width="24" height="24" viewBox="0 0 24 24" fill="none" xmlns="http://www.w3.org/2000/svg">
<path fill-rule="evenodd" clip-rule="evenodd" d="M15.1812 12.0002L22.3403 4.84125C23.2192 3.96225 23.2192 2.53825 22.3403 1.65925C21.4622 0.78025 20.0363 0.78025 19.1593 1.65925L11.9993 8.81825L4.84025 1.65925C3.96225 0.78025 2.53625 0.78025 1.65925 1.65925C0.78025 2.53825 0.78025 3.96225 1.65925 4.84125L8.81825 12.0002L1.65925 19.1593C0.78025 20.0382 0.78025 21.4622 1.65925 22.3412C2.09725 22.7802 2.67325 23.0002 3.24925 23.0002C3.82625 23.0002 4.40225 22.7802 4.84025 22.3412L11.9993 15.1823L19.1593 22.3412C19.5972 22.7802 20.1733 23.0002 20.7493 23.0002C21.3263 23.0002 21.9023 22.7802 22.3403 22.3412C23.2192 21.4622 23.2192 20.0382 22.3403 19.1593L15.1812 12.0002Z" fill="#111111"/>
</svg>
