<svg width="24" height="24" viewBox="0 0 24 24" fill="none" xmlns="http://www.w3.org/2000/svg">
<path fill-rule="evenodd" clip-rule="evenodd" d="M23.5607 10.6095C24.4217 9.7325 23.9467 8.2045 22.7567 8.0245L16.9777 7.1465C16.5047 7.0745 16.0967 6.7645 15.8857 6.3175L13.3007 0.8445C12.7687 -0.2815 11.2317 -0.2815 10.6997 0.8445L8.1147 6.3175C7.9037 6.7645 7.4957 7.0745 7.0227 7.1465L1.2437 8.0245C0.0536977 8.2045 -0.421302 9.7325 0.439698 10.6095L4.6217 14.8685C4.9637 15.2165 5.1197 15.7185 5.0387 16.2105L4.0517 22.2245C3.8487 23.4635 5.0927 24.4075 6.1557 23.8225L11.3257 20.9835C11.7477 20.7505 12.2527 20.7505 12.6757 20.9835L17.8437 23.8225C18.9087 24.4075 20.1517 23.4635 19.9487 22.2245L18.9617 16.2105C18.8807 15.7185 19.0377 15.2165 19.3787 14.8685L23.5607 10.6095Z" fill="#111111"/>
</svg>
