<svg width="24" height="24" viewBox="0 0 24 24" fill="none" xmlns="http://www.w3.org/2000/svg">
<path d="M19.2545 14.0001C19.2545 13.1721 19.9143 12.5001 20.7273 12.5001C21.5402 12.5001 22.2 13.1721 22.2 14.0001V21.5001C22.2 22.3281 21.5402 23.0001 20.7273 23.0001H3.47273C2.65978 23.0001 2 22.3281 2 21.5001V14.0001C2 13.1721 2.65978 12.5001 3.47273 12.5001C4.28567 12.5001 4.94545 13.1721 4.94545 14.0001V20.0001H19.2545V14.0001Z" fill="#111111"/>
<path d="M10.5433 6.74824L9.66125 7.63178C9.07622 8.21755 8.12668 8.21905 7.53941 7.63328C6.95363 7.04825 6.95288 6.09871 7.53791 5.51219L11.3347 1.70781C11.7248 1.3169 12.358 1.31627 12.7489 1.7064L16.56 5.50994C17.1458 6.09571 17.1466 7.04525 16.5615 7.63178C15.9765 8.21755 15.027 8.21905 14.4404 7.63328L13.5434 6.73849V14.3722C13.5434 15.2002 12.8714 15.8722 12.0433 15.8722C11.2146 15.8722 10.5433 15.2002 10.5433 14.3722V6.74824Z" fill="#111111"/>
</svg>
