<svg width="72" height="72" viewBox="0 0 72 72" fill="none" xmlns="http://www.w3.org/2000/svg">
<path d="M31.2543 46.5H39.2543V46.59C39.2543 47.92 38.1743 49 36.8443 49H33.6643C32.3343 49 31.2543 47.92 31.2543 46.59V46.5ZM42.3143 37.81C42.1643 37.78 42.0343 37.72 41.8843 37.68C41.3143 38.98 40.3743 40.1 39.1343 40.87C38.2443 41.42 37.5843 42.15 37.1943 42.99H33.3243C32.9743 42.24 32.3743 41.49 31.3643 40.86C29.4643 39.68 27.7143 36.91 28.0443 33.9C28.4143 30.58 31.0943 27.9 34.4143 27.53C34.6943 27.52 34.9743 27.5 35.2543 27.5C35.8743 27.5 36.4743 27.59 37.0443 27.73C37.3143 27.04 37.6843 26.39 38.1543 25.81C38.2343 25.71 38.3243 25.63 38.4043 25.53C37.4143 25.19 36.3543 25 35.2543 25C34.8843 25 34.5143 25.02 34.1443 25.06C29.6743 25.55 26.0543 29.18 25.5543 33.65C25.1243 37.57 27.3043 41.3 30.0543 43C30.8943 43.52 31.2543 44.14 31.2543 45V45.5H39.2543V45C39.2543 44.14 39.6543 43.5 40.4543 43C42.3043 41.85 43.7143 40.07 44.4443 37.98C44.2943 37.98 44.1543 38 44.0043 38C43.4443 38 42.8743 37.94 42.3143 37.81ZM42.7443 35.86C40.7243 35.41 39.0943 33.78 38.6443 31.76C37.7543 27.75 41.2543 24.25 45.2643 25.14C47.2843 25.59 48.9143 27.22 49.3643 29.24C50.2543 33.25 46.7543 36.75 42.7443 35.86ZM47.2543 30.5C47.2543 29.95 46.8043 29.5 46.2543 29.5H45.0043V28.25C45.0043 27.7 44.5543 27.25 44.0043 27.25C43.4543 27.25 43.0043 27.7 43.0043 28.25V29.5H41.7543C41.2043 29.5 40.7543 29.95 40.7543 30.5C40.7543 31.05 41.2043 31.5 41.7543 31.5H43.0043V32.75C43.0043 33.3 43.4543 33.75 44.0043 33.75C44.5543 33.75 45.0043 33.3 45.0043 32.75V31.5H46.2543C46.8043 31.5 47.2543 31.05 47.2543 30.5Z" fill="white"/>
</svg>
