<?xml version="1.0" encoding="UTF-8"?>
<svg width="26px" height="25px" viewBox="0 0 26 25" version="1.1" xmlns="http://www.w3.org/2000/svg" xmlns:xlink="http://www.w3.org/1999/xlink">
    <!-- Generator: Sketch 53.2 (72643) - https://sketchapp.com -->
    <title>Group 6</title>
    <desc>Created with Sketch.</desc>
    <g id="homefeed" stroke="none" stroke-width="1" fill="none" fill-rule="evenodd">
        <g id="on-black-2" transform="translate(-1370.000000, -890.000000)" fill="#000000">
            <g id="Group" transform="translate(1343.000000, 852.000000)">
                <g id="Group-6" transform="translate(27.000000, 38.000000)">
                    <path d="M16.5638852,11 L23.4361148,11 C24.3276335,11 24.6509198,11.0928256 24.9768457,11.2671327 C25.3027716,11.4414398 25.5585602,11.6972284 25.7328673,12.0231543 C25.9071744,12.3490802 26,12.6723665 26,13.5638852 L26,22.4361148 C26,23.3276335 25.9071744,23.6509198 25.7328673,23.9768457 C25.5585602,24.3027716 25.3027716,24.5585602 24.9768457,24.7328673 C24.6509198,24.9071744 24.3276335,25 23.4361148,25 L16.5638852,25 C15.6723665,25 15.3490802,24.9071744 15.0231543,24.7328673 C14.6972284,24.5585602 14.4414398,24.3027716 14.2671327,23.9768457 C14.0928256,23.6509198 14,23.3276335 14,22.4361148 L14,13.5638852 C14,12.6723665 14.0928256,12.3490802 14.2671327,12.0231543 C14.4414398,11.6972284 14.6972284,11.4414398 15.0231543,11.2671327 C15.3490802,11.0928256 15.6723665,11 16.5638852,11 Z" id="Rectangle-Copy-4"></path>
                    <path d="M2.5638852,-1.03584031e-16 L9.4361148,1.03584031e-16 C10.3276335,-6.01853049e-17 10.6509198,0.0928256111 10.9768457,0.267132704 C11.3027716,0.441439796 11.5585602,0.697228371 11.7328673,1.0231543 C11.9071744,1.34908022 12,1.67236646 12,2.5638852 L12,11.4361148 C12,12.3276335 11.9071744,12.6509198 11.7328673,12.9768457 C11.5585602,13.3027716 11.3027716,13.5585602 10.9768457,13.7328673 C10.6509198,13.9071744 10.3276335,14 9.4361148,14 L2.5638852,14 C1.67236646,14 1.34908022,13.9071744 1.0231543,13.7328673 C0.697228371,13.5585602 0.441439796,13.3027716 0.267132704,12.9768457 C0.0928256111,12.6509198 4.01235366e-17,12.3276335 -6.90560205e-17,11.4361148 L6.90560205e-17,2.5638852 C-4.01235366e-17,1.67236646 0.0928256111,1.34908022 0.267132704,1.0231543 C0.441439796,0.697228371 0.697228371,0.441439796 1.0231543,0.267132704 C1.34908022,0.0928256111 1.67236646,6.01853049e-17 2.5638852,-1.03584031e-16 Z" id="Rectangle-Copy-6"></path>
                    <path d="M16.5638852,-1.03584031e-16 L23.4361148,1.03584031e-16 C24.3276335,-6.01853049e-17 24.6509198,0.0928256111 24.9768457,0.267132704 C25.3027716,0.441439796 25.5585602,0.697228371 25.7328673,1.0231543 C25.9071744,1.34908022 26,1.67236646 26,2.5638852 L26,6.4361148 C26,7.32763354 25.9071744,7.65091978 25.7328673,7.9768457 C25.5585602,8.30277163 25.3027716,8.5585602 24.9768457,8.7328673 C24.6509198,8.90717439 24.3276335,9 23.4361148,9 L16.5638852,9 C15.6723665,9 15.3490802,8.90717439 15.0231543,8.7328673 C14.6972284,8.5585602 14.4414398,8.30277163 14.2671327,7.9768457 C14.0928256,7.65091978 14,7.32763354 14,6.4361148 L14,2.5638852 C14,1.67236646 14.0928256,1.34908022 14.2671327,1.0231543 C14.4414398,0.697228371 14.6972284,0.441439796 15.0231543,0.267132704 C15.3490802,0.0928256111 15.6723665,6.01853049e-17 16.5638852,-1.03584031e-16 Z" id="Rectangle-Copy-5"></path>
                    <path d="M2.5638852,16 L9.4361148,16 C10.3276335,16 10.6509198,16.0928256 10.9768457,16.2671327 C11.3027716,16.4414398 11.5585602,16.6972284 11.7328673,17.0231543 C11.9071744,17.3490802 12,17.6723665 12,18.5638852 L12,22.4361148 C12,23.3276335 11.9071744,23.6509198 11.7328673,23.9768457 C11.5585602,24.3027716 11.3027716,24.5585602 10.9768457,24.7328673 C10.6509198,24.9071744 10.3276335,25 9.4361148,25 L2.5638852,25 C1.67236646,25 1.34908022,24.9071744 1.0231543,24.7328673 C0.697228371,24.5585602 0.441439796,24.3027716 0.267132704,23.9768457 C0.0928256111,23.6509198 4.01235366e-17,23.3276335 -6.90560205e-17,22.4361148 L6.90560205e-17,18.5638852 C-4.01235366e-17,17.6723665 0.0928256111,17.3490802 0.267132704,17.0231543 C0.441439796,16.6972284 0.697228371,16.4414398 1.0231543,16.2671327 C1.34908022,16.0928256 1.67236646,16 2.5638852,16 Z" id="Rectangle-Copy-8"></path>
                </g>
            </g>
        </g>
    </g>
</svg>