<?xml version="1.0" encoding="UTF-8"?>
<svg width="48px" height="48px" viewBox="0 0 48 48" version="1.1" xmlns="http://www.w3.org/2000/svg" xmlns:xlink="http://www.w3.org/1999/xlink">
    <!-- Generator: Sketch 53.2 (72643) - https://sketchapp.com -->
    <title>Messages</title>
    <desc>Created with Sketch.</desc>
    <defs>
        <path d="M18,12.5 C17.172,12.5 16.5,11.828 16.5,11 C16.5,10.172 17.172,9.5 18,9.5 C18.828,9.5 19.5,10.172 19.5,11 C19.5,11.828 18.828,12.5 18,12.5 M12,12.5 C11.172,12.5 10.5,11.828 10.5,11 C10.5,10.172 11.172,9.5 12,9.5 C12.828,9.5 13.5,10.172 13.5,11 C13.5,11.828 12.828,12.5 12,12.5 M6,12.5 C5.172,12.5 4.5,11.828 4.5,11 C4.5,10.172 5.172,9.5 6,9.5 C6.828,9.5 7.5,10.172 7.5,11 C7.5,11.828 6.828,12.5 6,12.5 M12,0 C5.925,0 1,4.925 1,11 C1,13.653 1.94,16.086 3.504,17.986 L2,24 L7.336,20.951 C8.753,21.617 10.33,22 12,22 C18.075,22 23,17.075 23,11 C23,4.925 18.075,0 12,0" id="path-1"></path>
    </defs>
    <g id="Page-3" stroke="none" stroke-width="1" fill="none" fill-rule="evenodd">
        <g id="Artboard" transform="translate(-1280.000000, -8.000000)">
            <g id="Nav-bar">
                <g id="Right" transform="translate(981.000000, 8.000000)">
                    <g id="Messages" transform="translate(299.000000, 0.000000)">
                        <g id="Overrides/states/icon-button/White" fill="#FFFFFF">
                            <circle id="contextual-menu-background-small-selected" cx="24" cy="24" r="24"></circle>
                        </g>
                        <g id="Icons/speech-ellipsis" transform="translate(12.000000, 12.000000)">
                            <mask id="mask-2" fill="white">
                                <use xlink:href="#path-1"></use>
                            </mask>
                            <use id="Color" fill="#8E8E8E" fill-rule="evenodd" xlink:href="#path-1"></use>
                        </g>
                    </g>
                </g>
            </g>
        </g>
    </g>
</svg>