<svg width="24" height="24" viewBox="0 0 24 24" fill="none" xmlns="http://www.w3.org/2000/svg">
<path fill-rule="evenodd" clip-rule="evenodd" d="M12 9C10.343 9 9 10.343 9 12C9 13.657 10.343 15 12 15C13.657 15 15 13.657 15 12C15 10.343 13.657 9 12 9Z" fill="#111111"/>
<path fill-rule="evenodd" clip-rule="evenodd" d="M3 9C1.343 9 0 10.343 0 12C0 13.657 1.343 15 3 15C4.657 15 6 13.657 6 12C6 10.343 4.657 9 3 9Z" fill="#111111"/>
<path fill-rule="evenodd" clip-rule="evenodd" d="M21 9C19.343 9 18 10.343 18 12C18 13.657 19.343 15 21 15C22.657 15 24 13.657 24 12C24 10.343 22.657 9 21 9Z" fill="#111111"/>
</svg>
