<svg width="24" height="24" viewBox="0 0 24 24" fill="none" xmlns="http://www.w3.org/2000/svg">
<path fill-rule="evenodd" clip-rule="evenodd" d="M2 4.5C2 5.19036 2.55964 5.75 3.25 5.75H20.75C21.4404 5.75 22 5.19036 22 4.5V4.5C22 3.80964 21.4404 3.25 20.75 3.25H3.25C2.55964 3.25 2 3.80964 2 4.5V4.5ZM2 9.49958C2 10.1902 2.55983 10.75 3.25042 10.75H15.7496C16.4402 10.75 17 10.1902 17 9.49958V9.49958C17 8.809 16.4402 8.24917 15.7496 8.24917H3.25042C2.55983 8.24917 2 8.809 2 9.49958V9.49958ZM2 14.5C2 15.1904 2.55964 15.75 3.25 15.75H20.75C21.4404 15.75 22 15.1904 22 14.5V14.5C22 13.8096 21.4404 13.25 20.75 13.25H3.25C2.55964 13.25 2 13.8096 2 14.5V14.5ZM2 19.5C2 20.1904 2.55964 20.75 3.25 20.75H15.75C16.4404 20.75 17 20.1904 17 19.5V19.5C17 18.8096 16.4404 18.25 15.75 18.25H3.25C2.55964 18.25 2 18.8096 2 19.5V19.5Z" fill="#111111"/>
</svg>
