<?xml version="1.0" encoding="UTF-8"?>
<svg width="48px" height="48px" viewBox="0 0 48 48" version="1.1" xmlns="http://www.w3.org/2000/svg" xmlns:xlink="http://www.w3.org/1999/xlink">
    <!-- Generator: Sketch 53.2 (72643) - https://sketchapp.com -->
    <title>Overflow</title>
    <desc>Created with Sketch.</desc>
    <defs>
        <path d="M12,9 C10.343,9 9,10.343 9,12 C9,13.657 10.343,15 12,15 C13.657,15 15,13.657 15,12 C15,10.343 13.657,9 12,9 M3,9 C4.657,9 6,10.343 6,12 C6,13.657 4.657,15 3,15 C1.343,15 0,13.657 0,12 C0,10.343 1.343,9 3,9 Z M21,9 C22.657,9 24,10.343 24,12 C24,13.657 22.657,15 21,15 C19.343,15 18,13.657 18,12 C18,10.343 19.343,9 21,9 Z" id="path-1"></path>
    </defs>
    <g id="Page-3" stroke="none" stroke-width="1" fill="none" fill-rule="evenodd">
        <g id="Artboard" transform="translate(-1376.000000, -8.000000)">
            <g id="Nav-bar">
                <g id="Right" transform="translate(981.000000, 8.000000)">
                    <g id="3.-Web-Components/Icon-Buttons/Icon-button-L-48px" transform="translate(395.000000, 0.000000)">
                        <g id="Overrides/states/icon-button/White" fill="#FFFFFF" fill-rule="evenodd">
                            <circle id="contextual-menu-background-small-selected" cx="24" cy="24" r="24"></circle>
                        </g>
                        <g id="Icons/ellipsis" transform="translate(12.000000, 12.000000)">
                            <mask id="mask-2" fill="white">
                                <use xlink:href="#path-1"></use>
                            </mask>
                            <use id="Color" fill="#8E8E8E" fill-rule="evenodd" xlink:href="#path-1"></use>
                        </g>
                    </g>
                </g>
            </g>
        </g>
    </g>
</svg>