<?xml version="1.0" encoding="UTF-8"?>
<svg width="11px" height="11px" viewBox="0 0 11 11" version="1.1" xmlns="http://www.w3.org/2000/svg" xmlns:xlink="http://www.w3.org/1999/xlink">
    <!-- Generator: Sketch 53.2 (72643) - https://sketchapp.com -->
    <title>star</title>
    <desc>Created with Sketch.</desc>
    <g id="for-the-deck" stroke="none" stroke-width="1" fill="none" fill-rule="evenodd">
        <g id="Artboard" transform="translate(-353.000000, -1200.000000)" fill="#333333">
            <g id="pin-shit-3" transform="translate(351.000000, 827.000000)">
                <g id="Group-15-Copy-7" transform="translate(1.000000, 370.000000)">
                    <g id="Group-12" transform="translate(1.000000, 0.000000)">
                        <g id="Overrides/Pin-Rep/phone/PTI/Product-Copy-6" transform="translate(0.000000, 3.000000)">
                            <path d="M9.8356469,4.92078125 L7.43535523,6.77428125 L8.3355219,9.71861458 C8.5156469,10.3075729 7.84098023,10.7833229 7.3565219,10.4088646 L5.04148023,8.62182292 L2.72643856,10.4088646 C2.24198023,10.7833229 1.56731356,10.3075729 1.7478969,9.71861458 L2.64760523,6.77428125 L0.247313562,4.92078125 C-0.228894771,4.55319792 0.0286885619,3.78457292 0.627730229,3.78457292 L3.56198023,3.78457292 L4.44243856,0.904864583 C4.62485523,0.309489583 5.45810523,0.309489583 5.6405219,0.904864583 L6.52098023,3.78457292 L9.45523023,3.78457292 C10.0547302,3.78457292 10.3118552,4.55319792 9.8356469,4.92078125" id="star"></path>
                        </g>
                    </g>
                </g>
            </g>
        </g>
    </g>
</svg>