<svg width="72" height="72" viewBox="0 0 72 72" fill="none" xmlns="http://www.w3.org/2000/svg">
<path fill-rule="evenodd" clip-rule="evenodd" d="M30.3295 32.0153C31.3968 32.0153 32.2614 31.1498 32.2614 30.0835C32.2614 29.0162 31.3968 28.1516 30.3295 28.1516C29.2631 28.1516 28.3977 29.0162 28.3977 30.0835C28.3977 31.1498 29.2631 32.0153 30.3295 32.0153ZM37.4417 26.0251L45.979 34.5624C47.007 35.5904 47.007 37.2585 45.979 38.2865L38.5326 45.7329C37.5046 46.7609 35.8373 46.7609 34.8094 45.7329L26.2712 37.1948C25.778 36.7016 25.5 36.0322 25.5 35.3336V27.8872C25.5 26.4324 26.6794 25.2539 28.1333 25.2539H35.5806C36.2783 25.2539 36.9486 25.531 37.4417 26.0251Z" fill="white"/>
</svg>
