<svg width="24" height="24" viewBox="0 0 24 24" fill="none" xmlns="http://www.w3.org/2000/svg">
<path d="M11.6719 15.3945C12.0918 15.3945 12.4434 15.043 12.4434 14.6328V4.60352L12.3848 3.14844L13.0488 3.8418L14.5234 5.41406C14.6602 5.57031 14.8652 5.64844 15.0508 5.64844C15.4609 5.64844 15.7637 5.35547 15.7637 4.96484C15.7637 4.75 15.6855 4.59375 15.5391 4.44727L12.2383 1.26367C12.043 1.06836 11.8672 1 11.6719 1C11.4668 1 11.3008 1.06836 11.1055 1.26367L7.80469 4.44727C7.6582 4.59375 7.57031 4.75 7.57031 4.96484C7.57031 5.35547 7.86328 5.64844 8.27344 5.64844C8.46875 5.64844 8.67383 5.57031 8.81055 5.41406L10.2949 3.8418L10.959 3.13867L10.8906 4.60352V14.6328C10.8906 15.043 11.252 15.3945 11.6719 15.3945ZM6.06641 23.041H17.2676C19.3184 23.041 20.334 22.0254 20.334 20.0137V10.3848C20.334 8.37305 19.3184 7.35742 17.2676 7.35742H14.5527V8.92969H17.248C18.2051 8.92969 18.7617 9.44727 18.7617 10.4629V19.9355C18.7617 20.9512 18.2051 21.4688 17.248 21.4688H6.0957C5.11914 21.4688 4.57227 20.9512 4.57227 19.9355V10.4629C4.57227 9.44727 5.11914 8.92969 6.0957 8.92969H8.79102V7.35742H6.06641C4.03516 7.35742 3 8.36328 3 10.3848V20.0137C3 22.0352 4.03516 23.041 6.06641 23.041Z" fill="white"/>
</svg>
