<svg width="24" height="24" viewBox="0 0 24 24" fill="none" xmlns="http://www.w3.org/2000/svg">
<path d="M14.5913 21.2559C15.4629 21.2559 16.1191 20.5996 16.1191 19.728V3.50635C16.1191 2.63477 15.4629 1.9375 14.5708 1.9375C13.9863 1.9375 13.5659 2.19385 12.9404 2.74756L8.36719 6.81836C8.29541 6.87988 8.23389 6.90039 8.1416 6.90039H5.18848C3.52734 6.90039 2.61475 7.8335 2.61475 9.58691V13.627C2.61475 15.3804 3.52734 16.3135 5.18848 16.3135H8.1416C8.23389 16.3135 8.30566 16.334 8.36719 16.3955L12.9404 20.4868C13.5249 21.0098 13.9863 21.2559 14.5913 21.2559ZM13.6377 18.1489C13.5864 18.1489 13.5249 18.1182 13.4736 18.0669L9.41309 14.396C9.19775 14.1909 9.02344 14.1396 8.71582 14.1396H5.46533C5.14746 14.1396 4.95264 13.9346 4.95264 13.6167V9.59717C4.95264 9.2793 5.14746 9.07422 5.46533 9.07422H8.71582C9.02344 9.07422 9.1875 9.0332 9.41309 8.81787L13.4736 5.13672C13.5146 5.08545 13.5762 5.05469 13.6377 5.05469C13.73 5.05469 13.7915 5.11621 13.7915 5.21875V17.9849C13.7915 18.0771 13.73 18.1489 13.6377 18.1489ZM19.7593 16.5186C20.2822 16.8569 20.959 16.7339 21.3179 16.2314C22.21 15.0215 22.7329 13.3604 22.7329 11.6377C22.7329 9.90479 22.1997 8.25391 21.3179 7.03369C20.959 6.53125 20.2822 6.4082 19.7593 6.74658C19.1543 7.12598 19.0415 7.8335 19.5132 8.58203C20.0566 9.38184 20.3848 10.4995 20.3848 11.6377C20.3848 12.7759 20.0464 13.8833 19.5132 14.6934C19.0415 15.4419 19.1543 16.1392 19.7593 16.5186Z" fill="white"/>
</svg>
