<svg width="24" height="24" viewBox="0 0 24 24" fill="none" xmlns="http://www.w3.org/2000/svg">
<path d="M11.5 21.1289C11.8223 21.1289 12.2324 20.9727 12.5742 20.748C17.9062 17.3398 21.1973 13.2773 21.1973 9.26367C21.1973 5.71875 18.8145 3.28711 15.6699 3.28711C14.0488 3.28711 12.6035 3.98047 11.5 5.58203C10.4062 3.98047 8.95117 3.28711 7.33008 3.28711C4.18555 3.28711 1.80273 5.71875 1.80273 9.26367C1.80273 13.2773 5.09375 17.3398 10.4258 20.748C10.7676 20.9727 11.1777 21.1289 11.5 21.1289ZM11.5 19.5078C11.4414 19.5078 11.3535 19.4785 11.2461 19.4004C6.58789 16.3633 3.375 12.6719 3.375 9.26367C3.375 6.57812 5.06445 4.85938 7.33008 4.85938C9.06836 4.85938 10.2402 6.09961 10.7773 7.13477C10.9727 7.51562 11.1777 7.69141 11.5 7.69141C11.8223 7.69141 12.0273 7.51562 12.2129 7.14453C12.7305 6.09961 13.9316 4.85938 15.6699 4.85938C17.9355 4.85938 19.625 6.57812 19.625 9.26367C19.625 12.6719 16.4121 16.3633 11.7539 19.4004C11.6367 19.4785 11.5586 19.5078 11.5 19.5078Z" fill="white"/>
</svg>
