<svg width="24" height="24" viewBox="0 0 24 24" fill="none" xmlns="http://www.w3.org/2000/svg">
<path d="M9.9914 7.664L8.8154 8.842C8.0354 9.623 6.7694 9.625 5.9864 8.844C5.2054 8.064 5.2044 6.798 5.9844 6.016L11.9884 0L18.0134 6.013C18.7944 6.794 18.7954 8.06 18.0154 8.842C17.2354 9.623 15.9694 9.625 15.1874 8.844L13.9914 7.651V13.829C13.9914 14.933 13.0954 15.829 11.9914 15.829C10.8864 15.829 9.9914 14.933 9.9914 13.829V7.664Z" fill="#111111"/>
<path d="M19 16.0002C19 14.8962 19.896 14.0002 21 14.0002C22.104 14.0002 23 14.8962 23 16.0002V22.0002C23 23.1042 22.104 24.0002 21 24.0002H3C1.896 24.0002 1 23.1042 1 22.0002V16.0002C1 14.8962 1.896 14.0002 3 14.0002C4.104 14.0002 5 14.8962 5 16.0002V20.0002H19V16.0002Z" fill="#111111"/>
</svg>
