<svg width="24" height="24" viewBox="0 0 24 24" fill="none" xmlns="http://www.w3.org/2000/svg">
<path fill-rule="evenodd" clip-rule="evenodd" d="M9 19.5C8.034 19.5 7.25 18.716 7.25 17.75C7.25 16.784 8.034 16 9 16C9.966 16 10.75 16.784 10.75 17.75C10.75 18.716 9.966 19.5 9 19.5ZM22.25 16H13.929C13.205 13.966 11.283 12.5 9 12.5C6.717 12.5 4.795 13.966 4.071 16H1.75C0.784 16 0 16.784 0 17.75C0 18.716 0.784 19.5 1.75 19.5H4.071C4.795 21.534 6.717 23 9 23C11.283 23 13.205 21.534 13.929 19.5H22.25C23.216 19.5 24 18.716 24 17.75C24 16.784 23.216 16 22.25 16ZM15 4.5C15.966 4.5 16.75 5.284 16.75 6.25C16.75 7.216 15.966 8 15 8C14.034 8 13.25 7.216 13.25 6.25C13.25 5.284 14.034 4.5 15 4.5ZM1.75 8H10.071C10.795 10.034 12.717 11.5 15 11.5C17.283 11.5 19.205 10.034 19.929 8H22.25C23.216 8 24 7.216 24 6.25C24 5.284 23.216 4.5 22.25 4.5H19.929C19.205 2.466 17.283 1 15 1C12.717 1 10.795 2.466 10.071 4.5H1.75C0.784 4.5 0 5.284 0 6.25C0 7.216 0.784 8 1.75 8Z" fill="#111111"/>
</svg>
