<svg width="72" height="72" viewBox="0 0 72 72" fill="none" xmlns="http://www.w3.org/2000/svg">
<path d="M37.25 31C37.25 30.3096 36.6904 29.75 36 29.75C35.3096 29.75 34.75 30.3096 34.75 31V32.75H33C32.3096 32.75 31.75 33.3096 31.75 34C31.75 34.6904 32.3096 35.25 33 35.25H34.75V37C34.75 37.6904 35.3096 38.25 36 38.25C36.6904 38.25 37.25 37.6904 37.25 37V35.25H39C39.6904 35.25 40.25 34.6904 40.25 34C40.25 33.3096 39.6904 32.75 39 32.75H37.25V31Z" fill="#111111"/>
<path fill-rule="evenodd" clip-rule="evenodd" d="M41.1964 41.6183C40.4968 42.0233 40 42.7364 40 43.5448V44.5H32V43.5448C32 42.7364 31.5032 42.0233 30.8036 41.6183C27.9232 39.9508 26 36.9388 26 33.5C26 28.2533 30.4772 24 36 24C41.5228 24 46 28.2533 46 33.5C46 36.9388 44.0768 39.9508 41.1964 41.6183ZM39.9439 39.4547C42.122 38.1937 43.5 35.9687 43.5 33.5C43.5 29.7533 40.2645 26.5 36 26.5C31.7355 26.5 28.5 29.7533 28.5 33.5C28.5 35.9687 29.878 38.1937 32.0561 39.4547C32.9777 39.9882 33.814 40.8697 34.2276 42H37.7724C38.186 40.8697 39.0224 39.9882 39.9439 39.4547Z" fill="#111111"/>
<path d="M32.0415 45.5C32.2795 46.9189 33.5135 48 35 48H37C38.4865 48 39.7205 46.9189 39.9585 45.5H32.0415Z" fill="#111111"/>
</svg>
