<?xml version="1.0" encoding="UTF-8"?>
<svg width="48px" height="48px" viewBox="0 0 48 48" version="1.1" xmlns="http://www.w3.org/2000/svg" xmlns:xlink="http://www.w3.org/1999/xlink">
    <!-- Generator: Sketch 53.2 (72643) - https://sketchapp.com -->
    <title>Notif</title>
    <desc>Created with Sketch.</desc>
    <defs>
        <path d="M12,24 C10.343,24 9,22.657 9,21 L15,21 C15,22.657 13.657,24 12,24 Z M19,13.1652 C20.581,14.6902 21.673,16.7192 22,19.0002 L2,19.0002 C2.327,16.7192 3.419,14.6902 5,13.1652 L5,7.0002 C5,3.1342 8.134,0.0002 12,0.0002 C15.866,0.0002 19,3.1342 19,7.0002 L19,13.1652 Z" id="path-1"></path>
    </defs>
    <g id="Page-3" stroke="none" stroke-width="1" fill="none" fill-rule="evenodd">
        <g id="Artboard" transform="translate(-1328.000000, -8.000000)">
            <g id="Nav-bar">
                <g id="Right" transform="translate(981.000000, 8.000000)">
                    <g id="3.-Web-Components/Icon-Buttons/Icon-button-L-48px" transform="translate(347.000000, 0.000000)">
                        <g id="Overrides/states/icon-button/White" fill="#FFFFFF" fill-rule="evenodd">
                            <circle id="contextual-menu-background-small-selected" cx="24" cy="24" r="24"></circle>
                        </g>
                        <g id="Icons/bell" transform="translate(12.000000, 12.000000)">
                            <mask id="mask-2" fill="white">
                                <use xlink:href="#path-1"></use>
                            </mask>
                            <use id="Color" fill="#8E8E8E" fill-rule="evenodd" xlink:href="#path-1"></use>
                        </g>
                    </g>
                </g>
            </g>
        </g>
    </g>
</svg>