<?xml version="1.0" encoding="UTF-8"?>
<svg width="71px" height="11px" viewBox="0 0 71 11" version="1.1" xmlns="http://www.w3.org/2000/svg" xmlns:xlink="http://www.w3.org/1999/xlink">
    <!-- Generator: Sketch 53.2 (72643) - https://sketchapp.com -->
    <title>pin-stars-lite</title>
    <desc>Created with Sketch.</desc>
    <g id="homefeed" stroke="none" stroke-width="1" fill="none" fill-rule="evenodd">
        <g id="Artboard" transform="translate(-160.000000, -35.000000)" fill="#FFFFFF" fill-rule="nonzero">
            <g id="pin-stars-lite" transform="translate(160.000000, 35.000000)">
                <path d="M69.8356469,4.46244792 L67.4353552,6.31594792 L68.3355219,9.26028125 C68.5156469,9.84923957 67.8409802,10.3249896 67.3565219,9.95053127 L65.0414802,8.16348959 L62.7264386,9.95053127 C62.2419802,10.3249896 61.5673136,9.84923957 61.7478969,9.26028125 L62.6476052,6.31594792 L60.2473136,4.46244792 C59.7711052,4.09486459 60.0286886,3.32623959 60.6277302,3.32623959 L63.5619802,3.32623959 L64.4424386,0.44653125 C64.6248552,-0.14884375 65.4581052,-0.14884375 65.6405219,0.44653125 L66.5209802,3.32623959 L69.4552302,3.32623959 C70.0547302,3.32623959 70.3118552,4.09486459 69.8356469,4.46244792" id="star-Copy-4"></path>
                <path d="M54.8356469,4.46244792 L52.4353552,6.31594792 L53.3355219,9.26028125 C53.5156469,9.84923957 52.8409802,10.3249896 52.3565219,9.95053127 L50.0414802,8.16348959 L47.7264386,9.95053127 C47.2419802,10.3249896 46.5673136,9.84923957 46.7478969,9.26028125 L47.6476052,6.31594792 L45.2473136,4.46244792 C44.7711052,4.09486459 45.0286886,3.32623959 45.6277302,3.32623959 L48.5619802,3.32623959 L49.4424386,0.44653125 C49.6248552,-0.14884375 50.4581052,-0.14884375 50.6405219,0.44653125 L51.5209802,3.32623959 L54.4552302,3.32623959 C55.0547302,3.32623959 55.3118552,4.09486459 54.8356469,4.46244792" id="star-Copy-3"></path>
                <path d="M39.8356469,4.46244792 L37.4353552,6.31594792 L38.3355219,9.26028125 C38.5156469,9.84923957 37.8409802,10.3249896 37.3565219,9.95053127 L35.0414802,8.16348959 L32.7264386,9.95053127 C32.2419802,10.3249896 31.5673136,9.84923957 31.7478969,9.26028125 L32.6476052,6.31594792 L30.2473136,4.46244792 C29.7711052,4.09486459 30.0286886,3.32623959 30.6277302,3.32623959 L33.5619802,3.32623959 L34.4424386,0.44653125 C34.6248552,-0.14884375 35.4581052,-0.14884375 35.6405219,0.44653125 L36.5209802,3.32623959 L39.4552302,3.32623959 C40.0547302,3.32623959 40.3118552,4.09486459 39.8356469,4.46244792" id="star-Copy-2"></path>
                <path d="M24.8356469,4.46244792 L22.4353552,6.31594792 L23.3355219,9.26028125 C23.5156469,9.84923957 22.8409802,10.3249896 22.3565219,9.95053127 L20.0414802,8.16348959 L17.7264386,9.95053127 C17.2419802,10.3249896 16.5673136,9.84923957 16.7478969,9.26028125 L17.6476052,6.31594792 L15.2473136,4.46244792 C14.7711052,4.09486459 15.0286886,3.32623959 15.6277302,3.32623959 L18.5619802,3.32623959 L19.4424386,0.44653125 C19.6248552,-0.14884375 20.4581052,-0.14884375 20.6405219,0.44653125 L21.5209802,3.32623959 L24.4552302,3.32623959 C25.0547302,3.32623959 25.3118552,4.09486459 24.8356469,4.46244792" id="star-Copy"></path>
                <path d="M9.8356469,4.46244792 L7.43535523,6.31594792 L8.3355219,9.26028125 C8.5156469,9.84923957 7.84098023,10.3249896 7.3565219,9.95053127 L5.04148023,8.16348959 L2.72643856,9.95053127 C2.24198023,10.3249896 1.56731356,9.84923957 1.7478969,9.26028125 L2.64760523,6.31594792 L0.247313562,4.46244792 C-0.228894771,4.09486459 0.0286885617,3.32623959 0.627730229,3.32623959 L3.56198023,3.32623959 L4.44243856,0.44653125 C4.62485523,-0.14884375 5.45810523,-0.14884375 5.6405219,0.44653125 L6.52098023,3.32623959 L9.45523023,3.32623959 C10.0547302,3.32623959 10.3118552,4.09486459 9.8356469,4.46244792" id="star"></path>
            </g>
        </g>
    </g>
</svg>