<?xml version="1.0" encoding="UTF-8"?>
<svg width="10px" height="10px" viewBox="0 0 10 10" version="1.1" xmlns="http://www.w3.org/2000/svg" xmlns:xlink="http://www.w3.org/1999/xlink">
    <!-- Generator: Sketch 53.2 (72643) - https://sketchapp.com -->
    <title>pin-tag-lite</title>
    <desc>Created with Sketch.</desc>
    <g id="homefeed" stroke="none" stroke-width="1" fill="none" fill-rule="evenodd">
        <g id="Artboard" transform="translate(-118.000000, -30.000000)" fill="#FFFFFF" fill-rule="nonzero">
            <g id="pin-tag-lite" transform="translate(118.000000, 30.000000)">
                <path d="M2.27246904,3.18145665 C2.77241223,3.18145665 3.18145665,2.77241223 3.18145665,2.27246904 C3.18145665,1.77252585 2.77241223,1.36348142 2.27246904,1.36348142 C1.77252585,1.36348142 1.36348142,1.77252585 1.36348142,2.27246904 C1.36348142,2.77241223 1.77252585,3.18145665 2.27246904,3.18145665 M5.61754346,0.36359505 L9.63526872,4.3813203 C10.1215771,4.86308374 10.1215771,5.64935803 9.63526872,6.1311215 L6.13112146,9.6352687 C5.64935803,10.1215771 4.86308374,10.1215771 4.3813203,9.6352687 L0.363595046,5.61754346 C0.131803204,5.38575162 0,5.07215089 0,4.74491535 L0,1.24076809 C0,0.55448245 0.554482445,0 1.24076809,0 L4.74491535,0 C5.07215089,0 5.38575162,0.1318032 5.61754346,0.36359505" id="tag"></path>
            </g>
        </g>
    </g>
</svg>