<?xml version="1.0" encoding="UTF-8"?>
<svg width="9px" height="9px" viewBox="0 0 9 9" version="1.1" xmlns="http://www.w3.org/2000/svg" xmlns:xlink="http://www.w3.org/1999/xlink">
    <!-- Generator: Sketch 53.2 (72643) - https://sketchapp.com -->
    <title>Icons/arrow-pti</title>
    <desc>Created with Sketch.</desc>
    <defs>
        <path d="M1.84809375,0.375 C1.36021875,0.375 0.96421875,0.77025 0.96421875,1.258875 C0.96421875,1.7475 1.36021875,2.14275 1.84809375,2.14275 L5.60709375,2.14275 L0.63346875,7.116 C0.28884375,7.461 0.28884375,8.020875 0.63346875,8.36625 C0.80634375,8.539125 1.03246875,8.625 1.25896875,8.625 C1.48509375,8.625 1.71121875,8.539125 1.88409375,8.36625 L6.85696875,3.392625 L6.85696875,7.151625 C6.85696875,7.64025 7.25296875,8.035875 7.74121875,8.035875 C8.22909375,8.035875 8.62509375,7.64025 8.62509375,7.151625 L8.62509375,0.375 L1.84809375,0.375 Z" id="path-1"></path>
    </defs>
    <g id="Page-3" stroke="none" stroke-width="1" fill="none" fill-rule="evenodd">
        <g id="236-width,-flex-gutter,-content-on-hover-copy-9" transform="translate(-466.000000, -420.000000)">
            <g id="Group-14" transform="translate(288.000000, 100.000000)">
                <g id="Group-3">
                    <g id="Group-2">
                        <g id="Group-30" transform="translate(168.000000, 309.000000)">
                            <g id="Group-31">
                                <g id="Icons/arrow-pti" transform="translate(10.000000, 11.000000)">
                                    <mask id="mask-2" fill="white">
                                        <use xlink:href="#path-1"></use>
                                    </mask>
                                    <use id="Color" fill="#333333" fill-rule="evenodd" xlink:href="#path-1"></use>
                                </g>
                            </g>
                        </g>
                    </g>
                </g>
            </g>
        </g>
    </g>
</svg>