<?xml version="1.0" encoding="UTF-8"?>
<svg width="11px" height="11px" viewBox="0 0 11 11" version="1.1" xmlns="http://www.w3.org/2000/svg" xmlns:xlink="http://www.w3.org/1999/xlink">
    <!-- Generator: Sketch 53.2 (72643) - https://sketchapp.com -->
    <title>pin-send-lite</title>
    <desc>Created with Sketch.</desc>
    <g id="homefeed" stroke="none" stroke-width="1" fill="none" fill-rule="evenodd">
        <g id="Artboard" transform="translate(-59.000000, -60.000000)" fill="#FFFFFF">
            <g id="pin-send-lite" transform="translate(59.000000, 60.000000)">
                <path d="M9.625,6.41675833 C10.131,6.41675833 10.5416667,6.827425 10.5416667,7.333425 L10.5416667,10.083425 C10.5416667,10.589425 10.131,11.0000917 9.625,11.0000917 L1.375,11.0000917 C0.869,11.0000917 0.458333333,10.589425 0.458333333,10.083425 L0.458333333,7.333425 C0.458333333,6.827425 0.869,6.41675833 1.375,6.41675833 C1.881,6.41675833 2.29166667,6.827425 2.29166667,7.333425 L2.29166667,9.16675833 L8.70833333,9.16675833 L8.70833333,7.333425 C8.70833333,6.827425 9.119,6.41675833 9.625,6.41675833 Z M4.04039167,4.05258333 C3.68289167,4.41054167 3.10264167,4.41145833 2.74376667,4.0535 C2.38580833,3.696 2.38535,3.11575 2.74285,2.75733333 L5.49468333,0 L8.25614167,2.75595833 C8.6141,3.11391667 8.61455833,3.69416667 8.25705833,4.05258333 C7.89955833,4.41054167 7.31930833,4.41145833 6.96089167,4.0535 L6.412725,3.50670833 L6.412725,6.33829167 C6.412725,6.84429167 6.00205833,7.25495833 5.49605833,7.25495833 C4.9896,7.25495833 4.57939167,6.84429167 4.57939167,6.33829167 L4.57939167,3.51266667 L4.04039167,4.05258333 Z" id="path-1"></path>
            </g>
        </g>
    </g>
</svg>