<?xml version="1.0" encoding="UTF-8"?>
<svg width="12px" height="4px" viewBox="0 0 12 4" version="1.1" xmlns="http://www.w3.org/2000/svg" xmlns:xlink="http://www.w3.org/1999/xlink">
    <!-- Generator: Sketch 53.2 (72643) - https://sketchapp.com -->
    <title>pin-overflow-lite</title>
    <desc>Created with Sketch.</desc>
    <g id="homefeed" stroke="none" stroke-width="1" fill="none" fill-rule="evenodd">
        <g id="Artboard" transform="translate(-106.000000, -71.000000)" fill="#FFFFFF">
            <g id="pin-overflow-lite" transform="translate(106.000000, 71.000000)">
                <path d="M6,0.5 C5.1715,0.5 4.5,1.1715 4.5,2 C4.5,2.8285 5.1715,3.5 6,3.5 C6.8285,3.5 7.5,2.8285 7.5,2 C7.5,1.1715 6.8285,0.5 6,0.5 L6,0.5 Z M1.5,0.5 C2.3285,0.5 3,1.1715 3,2 C3,2.8285 2.3285,3.5 1.5,3.5 C0.6715,3.5 0,2.8285 0,2 C0,1.1715 0.6715,0.5 1.5,0.5 Z M10.5,0.5 C11.3285,0.5 12,1.1715 12,2 C12,2.8285 11.3285,3.5 10.5,3.5 C9.6715,3.5 9,2.8285 9,2 C9,1.1715 9.6715,0.5 10.5,0.5 Z" id="path-1"></path>
            </g>
        </g>
    </g>
</svg>