<?xml version="1.0" encoding="UTF-8"?>
<svg width="28px" height="28px" viewBox="0 0 28 28" version="1.1" xmlns="http://www.w3.org/2000/svg" xmlns:xlink="http://www.w3.org/1999/xlink">
    <!-- Generator: Sketch 53.2 (72643) - https://sketchapp.com -->
    <title>pinterest-lite</title>
    <desc>Created with Sketch.</desc>
    <g id="homefeed" stroke="none" stroke-width="1" fill="none" fill-rule="evenodd">
        <g id="pinterest-lite" fill="#FFFFFF" fill-rule="nonzero">
            <path d="M0,14 C0,19.9768333 3.74616667,25.0798333 9.01833333,27.0876667 C8.89,25.9945 8.7535,24.192 9.0475,22.9273333 C9.30066667,21.84 10.682,15.9996667 10.682,15.9996667 C10.682,15.9996667 10.2655,15.1655 10.2655,13.93 C10.2655,11.9933333 11.3878333,10.5466667 12.7866667,10.5466667 C13.9766667,10.5466667 14.5506667,11.4391667 14.5506667,12.509 C14.5506667,13.7048333 13.7888333,15.4921667 13.3956667,17.15 C13.0678333,18.5371667 14.0921667,19.6688333 15.4595,19.6688333 C17.9363333,19.6688333 19.8415,17.0566667 19.8415,13.286 C19.8415,9.94816667 17.4428333,7.616 14.0186667,7.616 C10.0543333,7.616 7.72683333,10.5898333 7.72683333,13.664 C7.72683333,14.8621667 8.18766667,16.1455 8.764,16.8443333 C8.87716667,16.9831667 8.89466667,17.1033333 8.86083333,17.2445 C8.75466667,17.6855 8.519,18.6316667 8.4735,18.8253333 C8.41166667,19.0796667 8.27166667,19.1345 8.00683333,19.0108333 C6.26616667,18.2011667 5.17883333,15.6566667 5.17883333,13.6126667 C5.17883333,9.2155 8.372,5.17883333 14.3861667,5.17883333 C19.2208333,5.17883333 22.9786667,8.624 22.9786667,13.2276667 C22.9786667,18.0308333 19.9511667,21.8971667 15.7465,21.8971667 C14.3336667,21.8971667 13.0071667,21.1621667 12.5521667,20.2953333 C12.5521667,20.2953333 11.8533333,22.9576667 11.6841667,23.6086667 C11.3551667,24.8733333 10.4428333,26.474 9.877,27.3828333 C11.1813333,27.7841667 12.565,28 14,28 C21.7315,28 28,21.7315 28,14 C28,6.2685 21.7315,0 14,0 C6.2685,0 0,6.2685 0,14" id="path-1"></path>
        </g>
    </g>
</svg>