<svg width="72" height="72" viewBox="0 0 72 72" fill="none" xmlns="http://www.w3.org/2000/svg">
<path fill-rule="evenodd" clip-rule="evenodd" d="M29.8295 31.7614C30.8968 31.7614 31.7614 30.8959 31.7614 29.8295C31.7614 28.7623 30.8968 27.8977 29.8295 27.8977C28.7631 27.8977 27.8977 28.7623 27.8977 29.8295C27.8977 30.8959 28.7631 31.7614 29.8295 31.7614ZM36.9417 25.7712L45.479 34.3085C46.507 35.3365 46.507 37.0046 45.479 38.0326L38.0326 45.479C37.0046 46.507 35.3373 46.507 34.3094 45.479L25.7712 36.9409C25.278 36.4477 25 35.7783 25 35.0797V27.6333C25 26.1785 26.1794 25 27.6333 25H35.0806C35.7783 25 36.4486 25.2771 36.9417 25.7712Z" fill="#111111"/>
</svg>
