<svg width="24" height="24" viewBox="0 0 24 24" fill="none" xmlns="http://www.w3.org/2000/svg">
<path fill-rule="evenodd" clip-rule="evenodd" d="M22 8.48167L15.5183 2C14.725 2.79333 14.6383 4.02333 15.2533 4.91667L10.765 9.405C8.95833 8.92417 6.9525 9.38667 5.535 10.8042L8.77667 14.045L2.58917 20.2325L2 22L3.7675 21.4108L9.955 15.2233L13.1967 18.4642C14.6125 17.0475 15.075 15.0417 14.5942 13.2358L19.0833 8.74667C19.9758 9.36167 21.2058 9.27583 22 8.48167Z" fill="#111111"/>
<path fill-rule="evenodd" clip-rule="evenodd" d="M7.94758 1.26317C7.36492 1.09417 6.90558 0.634833 6.73658 0.0525C6.71658 -0.0175 6.61692 -0.0175 6.59658 0.0525C6.42758 0.634833 5.96858 1.09417 5.38558 1.26317C5.31558 1.2835 5.31558 1.38317 5.38558 1.4035C5.96858 1.5725 6.42758 2.03183 6.59658 2.61417C6.61692 2.68417 6.71658 2.68417 6.73658 2.61417C6.90558 2.03183 7.36492 1.5725 7.94758 1.4035C8.01758 1.38317 8.01758 1.2835 7.94758 1.26317ZM6.86258 4.68417C5.33292 5.1275 4.12758 6.33317 3.68392 7.8625C3.63092 8.04583 3.36925 8.04583 3.31592 7.8625C2.87225 6.33317 1.66692 5.1275 0.13725 4.68417C-0.04575 4.63083 -0.04575 4.36917 0.13725 4.31583C1.66692 3.8725 2.87225 2.66683 3.31592 1.1375C3.36925 0.954167 3.63092 0.954167 3.68392 1.1375C4.12758 2.66683 5.33292 3.8725 6.86258 4.31583C7.04592 4.36917 7.04592 4.63083 6.86258 4.68417Z" fill="#111111"/>
</svg>
