<svg width="48" height="48" viewBox="0 0 48 48" fill="none" xmlns="http://www.w3.org/2000/svg">
<path fill-rule="evenodd" clip-rule="evenodd" d="M32.3333 22.3333H25.6667V15.6667C25.6667 14.7467 24.92 14 24 14C23.08 14 22.3333 14.7467 22.3333 15.6667V22.3333H15.6667C14.7467 22.3333 14 23.08 14 24C14 24.92 14.7467 25.6667 15.6667 25.6667H22.3333V32.3333C22.3333 33.2533 23.08 34 24 34C24.92 34 25.6667 33.2533 25.6667 32.3333V25.6667H32.3333C33.2533 25.6667 34 24.92 34 24C34 23.08 33.2533 22.3333 32.3333 22.3333" fill="#111111"/>
</svg>
