<svg width="20" height="20" viewBox="0 0 20 20" fill="none" xmlns="http://www.w3.org/2000/svg">
<path fill-rule="evenodd" clip-rule="evenodd" d="M18.1705 10.59L16.1234 12.6748L16.6101 15.6402C16.9644 17.8028 14.7084 19.8921 12.4457 18.6492L10.0001 17.3057L7.55499 18.6484C7.55461 18.6486 7.55423 18.6488 7.55385 18.649C7.55369 18.6491 7.554 18.649 7.55385 18.649C5.29066 19.893 3.03576 17.801 3.3897 15.6407L3.87646 12.6748L1.82936 10.59C0.269707 9.00131 0.998522 6.07154 3.425 5.7035C3.42521 5.70347 3.4248 5.70353 3.425 5.7035C3.42523 5.70347 3.42607 5.70334 3.4263 5.7033L6.1831 5.28446L7.43289 2.63836C8.46491 0.454027 11.5349 0.453806 12.5669 2.63814L13.8168 5.28446L16.5736 5.7033C16.5738 5.70333 16.5734 5.70327 16.5736 5.7033C16.5738 5.70334 16.5746 5.70347 16.5749 5.7035C19.0014 6.07154 19.7302 9.00131 18.1705 10.59ZM16.2745 7.68081L12.9034 7.16865C12.6275 7.12665 12.3895 6.94582 12.2664 6.68507L10.7586 3.49251C10.4482 2.83568 9.55165 2.83568 9.24133 3.49251L7.73343 6.68507C7.61035 6.94582 7.37236 7.12665 7.09644 7.16865L3.72542 7.68081C3.03126 7.78581 2.75418 8.67713 3.25642 9.18871L5.69588 11.6731C5.89538 11.8761 5.98638 12.1689 5.93913 12.4559L5.36339 15.9641C5.24498 16.6868 5.97063 17.2375 6.5907 16.8962L9.60649 15.2402C9.85265 15.1042 10.1472 15.1042 10.394 15.2402L13.4086 16.8962C14.0298 17.2375 14.7549 16.6868 14.6365 15.9641L14.0607 12.4559C14.0135 12.1689 14.1051 11.8761 14.304 11.6731L16.7435 9.18871C17.2457 8.67713 16.9686 7.78581 16.2745 7.68081Z" fill="#111111"/>
</svg>
