<svg width="24" height="24" viewBox="0 0 24 24" fill="none" xmlns="http://www.w3.org/2000/svg">
<path fill-rule="evenodd" clip-rule="evenodd" d="M10 16C6.692 16 4 13.308 4 10C4 6.692 6.692 4 10 4C13.308 4 16 6.692 16 10C16 13.308 13.308 16 10 16ZM23.121 18.878L18.863 14.621C19.586 13.238 20 11.668 20 10C20 4.477 15.523 0 10 0C4.477 0 0 4.477 0 10C0 15.523 4.477 20 10 20C11.668 20 13.238 19.586 14.621 18.863L18.878 23.121C20.05 24.293 21.949 24.293 23.121 23.121C24.293 21.95 24.293 20.05 23.121 18.878Z" fill="#111111"/>
</svg>
