<svg width="16" height="16" viewBox="0 0 16 16" fill="none" xmlns="http://www.w3.org/2000/svg">
<path fill-rule="evenodd" clip-rule="evenodd" d="M10.1212 8.00147L14.8938 3.2288C15.4798 2.6428 15.4798 1.69347 14.8938 1.10747C14.3085 0.521469 13.3578 0.521469 12.7732 1.10747L7.99983 5.88014L3.22716 1.10747C2.64183 0.521469 1.69116 0.521469 1.10649 1.10747C0.520492 1.69347 0.520492 2.6428 1.10649 3.2288L5.87916 8.00147L1.10649 12.7741C0.520492 13.3601 0.520492 14.3095 1.10649 14.8955C1.39849 15.1881 1.78249 15.3348 2.16649 15.3348C2.55116 15.3348 2.93516 15.1881 3.22716 14.8955L7.99983 10.1228L12.7732 14.8955C13.0652 15.1881 13.4492 15.3348 13.8332 15.3348C14.2178 15.3348 14.6018 15.1881 14.8938 14.8955C15.4798 14.3095 15.4798 13.3601 14.8938 12.7741L10.1212 8.00147Z" fill="white"/>
</svg>
