<svg width="44" height="44" viewBox="0 0 44 44" fill="none" xmlns="http://www.w3.org/2000/svg">
<path fill-rule="evenodd" clip-rule="evenodd" d="M16.8015 18.8737C16.8015 17.8379 17.6407 16.9987 18.6765 16.9987C19.7123 16.9987 20.5515 17.8379 20.5515 18.8737C20.5515 19.9095 19.7123 20.7487 18.6765 20.7487C17.6407 20.7487 16.8015 19.9095 16.8015 18.8737V18.8737ZM15.334 16.1654C15.334 15.7062 15.7073 15.332 16.1673 15.332H27.834C28.2931 15.332 28.6673 15.7062 28.6673 16.1654V23.1445C27.4423 22.4287 26.0265 22.0054 24.5032 22.0054C22.9815 22.0054 21.5557 22.4137 20.3282 23.127C19.1007 23.8404 17.6748 24.2512 16.1523 24.2512C15.8757 24.2512 15.6032 24.2337 15.334 24.207V16.1654ZM27.834 12.832H16.1673C14.3265 12.832 12.834 14.3245 12.834 16.1654V23.5487V25.6204V27.832C12.834 29.6729 14.3265 31.1654 16.1673 31.1654H27.834C29.6748 31.1654 31.1673 29.6729 31.1673 27.832V25.6204V25.3612V16.1654C31.1673 14.3245 29.6748 12.832 27.834 12.832V12.832Z" fill="#111111"/>
</svg>
