<svg width="24" height="24" viewBox="0 0 24 24" fill="none" xmlns="http://www.w3.org/2000/svg">
<path fill-rule="evenodd" clip-rule="evenodd" d="M23.8428 3.7895C22.0948 3.2825 20.7168 1.9045 20.2098 0.1575C20.1497 -0.0525 19.8507 -0.0525 19.7898 0.1575C19.2828 1.9045 17.9058 3.2825 16.1567 3.7895C15.9468 3.8505 15.9468 4.1495 16.1567 4.2105C17.9058 4.7175 19.2828 6.0955 19.7898 7.8425C19.8507 8.0525 20.1497 8.0525 20.2098 7.8425C20.7168 6.0955 22.0948 4.7175 23.8428 4.2105C24.0527 4.1495 24.0527 3.8505 23.8428 3.7895ZM20.5877 14.0525C15.9987 15.3825 12.3828 18.9995 11.0518 23.5875C10.8927 24.1375 10.1077 24.1375 9.94775 23.5875C8.61675 18.9995 5.00075 15.3825 0.41175 14.0525C-0.13725 13.8925 -0.13725 13.1075 0.41175 12.9475C5.00075 11.6175 8.61675 8.0005 9.94775 3.4125C10.1077 2.8625 10.8927 2.8625 11.0518 3.4125C12.3828 8.0005 15.9987 11.6175 20.5877 12.9475C21.1377 13.1075 21.1377 13.8925 20.5877 14.0525Z" fill="#111111"/>
</svg>
