<svg width="44" height="44" viewBox="0 0 44 44" fill="none" xmlns="http://www.w3.org/2000/svg">
<rect width="44" height="44" fill="white"/>
<path fill-rule="evenodd" clip-rule="evenodd" d="M14.8785 32.116C14.9395 33.174 15.8155 34 16.8755 34H27.1035C28.1615 34 29.0375 33.175 29.0995 32.119L29.9995 17H13.9995L14.8785 32.116ZM31.9995 13.5C31.9995 14.328 31.3285 15 30.4995 15H13.4995C12.6715 15 11.9995 14.328 11.9995 13.5C11.9995 12.672 12.6715 12 13.4995 12H19.4995V11C19.4995 10.448 19.9475 10 20.4995 10H23.4995C24.0525 10 24.4995 10.448 24.4995 11V12H30.4995C31.3285 12 31.9995 12.672 31.9995 13.5Z" fill="#111111"/>
</svg>
