<svg width="24" height="24" viewBox="0 0 24 24" fill="none" xmlns="http://www.w3.org/2000/svg">
<path d="M12 21.2949C12.3711 21.2949 12.8105 21.1191 13.2207 20.8555C18.543 17.4375 21.873 13.3359 21.873 9.2832C21.873 5.60156 19.4121 3.10156 16.2188 3.10156C14.5 3.10156 13.0547 3.84375 12 5.40625C10.9453 3.84375 9.49023 3.10156 7.77148 3.10156C4.57812 3.10156 2.11719 5.60156 2.11719 9.2832C2.11719 13.3359 5.45703 17.4375 10.7695 20.8555C11.1797 21.1191 11.6191 21.2949 12 21.2949ZM12 19.2246C11.9414 19.2246 11.873 19.1953 11.7656 19.127C7.20508 16.0996 4.11914 12.5254 4.11914 9.27344C4.11914 6.73438 5.71094 5.09375 7.85938 5.09375C9.53906 5.09375 10.6523 6.23633 11.2188 7.30078C11.4238 7.69141 11.6387 7.88672 12 7.88672C12.3516 7.88672 12.5762 7.69141 12.7812 7.30078C13.3379 6.23633 14.4512 5.09375 16.1309 5.09375C18.2793 5.09375 19.8711 6.73438 19.8711 9.27344C19.8711 12.5254 16.7852 16.0996 12.2246 19.127C12.127 19.1953 12.0488 19.2246 12 19.2246Z" fill="#111111"/>
</svg>
