<svg width="20" height="20" viewBox="0 0 20 20" fill="none" xmlns="http://www.w3.org/2000/svg">
<path fill-rule="evenodd" clip-rule="evenodd" d="M19.6339 8.84125C20.3514 8.11042 19.9556 6.83708 18.9639 6.68708L14.1481 5.95542C13.7539 5.89542 13.4139 5.63708 13.2381 5.26458L11.0839 0.70375C10.6406 -0.234583 9.35975 -0.234583 8.91641 0.70375L6.76225 5.26458C6.58641 5.63708 6.24641 5.89542 5.85225 5.95542L1.03641 6.68708C0.0447481 6.83708 -0.351085 8.11042 0.366415 8.84125L3.85141 12.3904C4.13641 12.6804 4.26641 13.0987 4.19891 13.5087L3.37641 18.5204C3.20725 19.5529 4.24391 20.3396 5.12975 19.8521L9.43808 17.4862C9.78975 17.2921 10.2106 17.2921 10.5631 17.4862L14.8697 19.8521C15.7572 20.3396 16.7931 19.5529 16.6239 18.5204L15.8014 13.5087C15.7339 13.0987 15.8647 12.6804 16.1489 12.3904L19.6339 8.84125Z" fill="#111111"/>
</svg>
