<svg width="24" height="24" viewBox="0 0 24 24" fill="none" xmlns="http://www.w3.org/2000/svg">
<path d="M7.00586 22.2051C7.49414 22.2051 7.82617 21.9512 8.41211 21.4238L11.791 18.4258H18.0508C20.9609 18.4258 22.5234 16.8145 22.5234 13.9531V6.47266C22.5234 3.61133 20.9609 2 18.0508 2H5.47266C2.57227 2 1 3.60156 1 6.47266V13.9531C1 16.8242 2.57227 18.4258 5.47266 18.4258H5.94141V20.9648C5.94141 21.7168 6.33203 22.2051 7.00586 22.2051ZM7.40625 20.418V17.6934C7.40625 17.166 7.09375 16.8535 6.57617 16.8535H5.48242C3.5 16.8535 2.57227 15.8477 2.57227 13.9434V6.47266C2.57227 4.56836 3.5 3.57227 5.48242 3.57227H18.0508C20.0234 3.57227 20.9512 4.56836 20.9512 6.47266V13.9434C20.9512 15.8477 20.0234 16.8535 18.0508 16.8535H11.7227C11.1855 16.8535 10.9023 16.9316 10.5312 17.3125L7.40625 20.418Z" fill="white"/>
</svg>
