<svg width="24" height="24" viewBox="0 0 24 24" fill="none" xmlns="http://www.w3.org/2000/svg">
<path d="M7.02734 22.9375H17.3984C19.4199 22.9375 20.4258 21.9219 20.4258 19.8809V5.06641C20.4258 3.03516 19.4199 2 17.3984 2H7.02734C5.01562 2 4 3.03516 4 5.06641V19.8809C4 21.9219 5.01562 22.9375 7.02734 22.9375ZM7.10547 21.3652C6.09961 21.3652 5.57227 20.8281 5.57227 19.8516V5.0957C5.57227 4.12891 6.09961 3.57227 7.11523 3.57227H17.3203C18.3359 3.57227 18.8535 4.11914 18.8535 5.0957V19.8516C18.8535 20.8281 18.3359 21.3652 17.3301 21.3652H7.10547ZM8.52148 7.6543H15.9238C16.2656 7.6543 16.5293 7.38086 16.5293 7.03906C16.5293 6.70703 16.2656 6.45312 15.9238 6.45312H8.52148C8.16016 6.45312 7.90625 6.70703 7.90625 7.03906C7.90625 7.38086 8.16016 7.6543 8.52148 7.6543ZM8.52148 11.0625H15.9238C16.2656 11.0625 16.5293 10.7891 16.5293 10.4473C16.5293 10.1152 16.2656 9.86133 15.9238 9.86133H8.52148C8.16016 9.86133 7.90625 10.1152 7.90625 10.4473C7.90625 10.7891 8.16016 11.0625 8.52148 11.0625ZM8.52148 14.4707H12.0273C12.3691 14.4707 12.6328 14.207 12.6328 13.875C12.6328 13.5332 12.3691 13.2695 12.0273 13.2695H8.52148C8.16016 13.2695 7.90625 13.5332 7.90625 13.875C7.90625 14.207 8.16016 14.4707 8.52148 14.4707Z" fill="white"/>
</svg>
