<svg width="24" height="24" viewBox="0 0 24 24" fill="none" xmlns="http://www.w3.org/2000/svg">
<path d="M17.4111 14.2524V3.50635C17.4111 2.63477 16.7549 1.9375 15.8628 1.9375C15.2783 1.9375 14.8579 2.19385 14.2324 2.74756L9.84375 6.6543L11.3921 8.20264L14.7656 5.13672C14.8066 5.08545 14.8682 5.05469 14.9297 5.05469C15.0117 5.05469 15.0835 5.11621 15.0835 5.21875V11.9248L17.4111 14.2524ZM20.6206 21.7993C20.9487 22.1274 21.4819 22.1274 21.7998 21.7993C22.1177 21.4712 22.1279 20.9482 21.7998 20.6201L3.52734 2.34766C3.19922 2.02979 2.65576 2.01953 2.32764 2.34766C2.00977 2.66553 2.00977 3.21924 2.32764 3.53711L20.6206 21.7993ZM15.873 21.2559C16.478 21.2559 16.9907 20.938 17.2573 20.374L15.0425 18.2002L10.7051 14.396C10.4795 14.1909 10.3154 14.1396 10.0078 14.1396H6.75732C6.43945 14.1396 6.23438 13.9346 6.23438 13.6167L6.24463 9.44336L4.49121 7.63867C4.10156 8.1001 3.90674 8.74609 3.90674 9.56641V13.627C3.90674 15.3804 4.81934 16.3135 6.48047 16.3135H9.43359C9.51562 16.3135 9.59766 16.334 9.65918 16.3955L14.2324 20.4868C14.8169 21.0098 15.2783 21.2559 15.873 21.2559Z" fill="white"/>
</svg>
